<?xml version="1.0" encoding="UTF-8"?>
<svg id="Layer_2" data-name="Layer 2" xmlns="http://www.w3.org/2000/svg" viewBox="0 0 23.82 7.27">
  <g id="Layer_1-2" data-name="Layer 1">
    <g>
      <path d="m3.31.04h1.08c-.07.28-.11.51-.17.73-.17.68-.01,1.26.52,1.73.33.29.65.59.95.91.51.56.75,1.22.68,1.98-.08.9-.64,1.63-1.5,1.79-1.01.19-1.59.1-2.17-.82-.23-.36-.35-.8-.48-1.21-.1-.33-.15-.68-.26-1.2-.63,1.29-.08,2.15.67,3.04-1.05.15-1.79-.14-2.3-.89-.46-.69-.4-1.44-.06-2.17.26-.56.72-.95,1.24-1.27.27-.17.56-.31.83-.48.6-.39,1.03-.88.93-1.67-.01-.11.02-.23.05-.47Z"/>
      <path d="m20.8.06c.32-.02.59-.04.83-.06.24.33.07.6,0,.85-.19.66.03,1.17.5,1.62.29.27.59.54.87.82.41.4.67.9.79,1.46.15.76-.05,1.44-.61,1.97-.61.57-1.36.68-2.12.45-.31-.09-.6-.39-.83-.65-.4-.47-.57-1.04-.66-1.64-.04-.26-.06-.51-.11-.96-.76,1.27-.16,2.12.51,3.01-.31.22-.62.15-.9.08-1.35-.33-1.98-1.59-1.46-2.88.22-.54.58-.95,1.06-1.27.33-.22.68-.42,1.02-.62.71-.42,1.14-.99,1.04-1.86,0-.07.04-.15.09-.3Z"/>
      <path d="m7.48,1.51c.04.5.08,1.03.13,1.61.79-.13,1.19-.89,1.98-1.04.05.4.09.74.14,1.06.88.21,3.05.24,4.35.05.07-.34.15-.7.24-1.11.71.22,1.11.86,1.85,1.04.04-.49.05-.92.1-1.35.04-.3.25-.38.61-.21.04,1.35.02,2.74.01,4.06-.36.25-.55.15-.61-.15-.05-.23-.03-.48-.05-.71-.02-.19-.04-.39-.07-.63-.75.1-1.12.82-1.86.98-.08-.38-.15-.74-.23-1.15-1.43-.11-2.82-.05-4.27-.04-.08.41-.15.78-.23,1.21-.75-.16-1.18-.83-1.92-1.08-.17.47-.06.9-.1,1.32-.02.21-.08.43-.33.38-.11-.02-.23-.2-.27-.33-.05-.14-.04-.32-.04-.47,0-1.04,0-2.08.02-3.11,0-.28.15-.45.55-.35Z"/>
    </g>
  </g>
</svg>