<?xml version="1.0" encoding="UTF-8"?>
<svg id="Layer_2" data-name="Layer 2" xmlns="http://www.w3.org/2000/svg" viewBox="0 0 22.95 12.36">
  <g id="Layer_1-2" data-name="Layer 1">
    <g>
      <path d="m8.24,9.75c.37-1.14,1.1-1.79,2.03-2.26.04-.02.07-.04.1-.06.84-.43,1.43-1.02,1.22-2.11.35-.06.64-.1,1.03-.17-.07.35-.11.61-.17.86-.13.56,0,1.03.43,1.41.06.05.12.11.17.16.34.34.72.64,1.01,1.02.26.34.42.76.64,1.17.44-.53.59-1.14.6-1.79.01-.8,0-1.6,0-2.4,0-.28-.01-.56.02-.84.07-.64.45-1.01,1.08-1.07.24-.02.48-.01.72-.01,1.56,0,3.11,0,4.67,0,.28,0,.56-.01.83.04.12.02.3.17.32.28.04.23-.14.35-.36.36-.32.02-.64.02-.96.02-1.4,0-2.79,0-4.19,0-.39,0-.79.02-1.24.02-.07.33-.16.59-.16.85-.02.92.01,1.84-.02,2.75-.07,2.12-1.64,3.93-3.69,4.27-2.12.36-4.15-.72-4.99-2.67-.29-.67-.41-1.37-.41-2.1,0-.8,0-1.6,0-2.4,0-.19-.05-.38-.09-.64-.34-.04-.65-.09-.95-.1-1.64,0-3.27,0-4.91,0-.27,0-.55-.05-.81-.11-.07-.02-.12-.18-.14-.28,0-.06.06-.15.12-.18.1-.06.22-.11.33-.11,2,0,3.99-.02,5.99,0,.8,0,1.16.38,1.19,1.19.03.88.02,1.76,0,2.64,0,.61.09,1.19.31,1.76.07.17.19.32.28.48Zm2.88,1.75c-.4-.81-.67-1.62-.66-2.59-.48.37-.49.81-.4,1.24.12.6.38,1.13,1.06,1.35Z"/>
      <path d="m12.49,2.58c.11.07.2.13.3.18.1.06.19.11.35.19-.31.58-.68,1.07-1.14,1.56-.53-.43-.83-.97-1.14-1.48.17-.38.53-.18.79-.38.12-.27.24-.61.41-.91C12.65.7,13.53.09,14.74,0c.12,0,.25,0,.35.05.09.05.15.17.18.27.02.06-.03.18-.08.2-.22.09-.45.16-.68.22-1.01.23-1.68.83-2.01,1.84Z"/>
    </g>
  </g>
</svg>