<?xml version="1.0" encoding="UTF-8"?>
<svg id="Layer_2" data-name="Layer 2" xmlns="http://www.w3.org/2000/svg" viewBox="0 0 22.87 9.13">
  <g id="Layer_1-2" data-name="Layer 1">
    <g>
      <path d="m4.16,7.25c-.02-.16-.02-.32-.05-.47-.26-1.31.14-2.26,1.28-2.93.31-.18.65-.31.97-.45.33-.15.67-.26.98-.43.51-.29.87-.7.88-1.33,0-.15.05-.3.1-.53.22.05.38.1.55.11.17.02.35.01.63.02-.15.36-.23.62-.35.86-.33.65-.21,1.23.22,1.79.27.35.54.69.79,1.05.41.58.55,1.22.51,1.93-.1,1.55-1.74,2.51-3.29,1.71-.23-.12-.43-.36-.58-.59-.33-.51-.5-1.08-.51-1.7,0-.35,0-.71,0-1.12-.75.71-.74,1.26.03,3.05-.55.23-.96-.28-1.46-.29l.02.04c-.16-.35-.39-.63-.76-.76l.04.05Z"/>
      <path d="m16.29,5.33c-.32.33-.21.7-.24,1.05-.02.32-.02.64-.06.95-.04.28-.35.49-.6.49-.26,0-.55-.23-.61-.49-.03-.11-.04-.24-.04-.35,0-.68-.02-1.36,0-2.03.03-.63.23-.8.92-.8.55,0,1.11-.19,1.65.08.09.05.24.05.34.01.63-.26,1.25-.17,1.87.12.4-.48.78-.92,1.24-1.48-.24.03-.35.06-.44.04-.18-.03-.42-.04-.53-.15-.17-.19-.11-.45.05-.66.33-.44,1.02-.59,1.51-.33.5.27.67.85.39,1.45-.1.21-.23.4-.36.62.11.1.19.18.29.24.2.12.29.31.2.5-.08.15-.26.32-.42.35-.46.08-.94.09-1.43.13-.17.46-.08.91-.11,1.33-.02.32-.01.64-.06.95-.04.27-.35.5-.6.49-.26,0-.56-.22-.61-.49-.05-.23-.01-.48-.06-.71-.09-.42.26-.96-.32-1.25-.46.32-.2.79-.26,1.2-.04.23-.01.48-.05.71-.05.29-.3.51-.56.54-.29.03-.65-.22-.68-.55-.05-.43-.03-.88-.05-1.31-.01-.22.04-.48-.34-.63Z"/>
      <path d="m4.86,7.91c-.16.22-.28.47-.62.49-.45.02-.88,0-1.24-.31-.37-.32-.64-.72-.78-1.18-.13-.45-.21-.92-.35-1.51-.13.28-.26.46-.3.66-.08.49.09.94.34,1.36.14.23.3.45.49.74-.96.17-1.65-.16-2.12-.88-.45-.7-.36-1.46.06-2.15.2-.33.52-.6.82-.86.21-.18.46-.31.71-.44.84-.44,1.41-1.05,1.2-2.14.35-.05.63-.1,1.02-.16-.08.91-.47,1.81.41,2.47-.2.35-.41.65-.55.97-.31.68-.43,1.37-.05,2.07.05.09.17.15.26.22,0,0-.04-.05-.04-.05.06.45.3.71.76.76l-.02-.04Z"/>
      <path d="m15.17,8.89c-.52.3-.89.24-1.32.13-.07-.42-.21-.82.15-1.22q.43.7,1.17,1.09Z"/>
      <path d="m15.03.31c-.43.21-.59.35-1.03.89q-.21-.41-.14-1.03.84-.21,1.17.14Z"/>
      <path d="m21.51,8.89c.44-.24.8-.59,1.18-1.09.26.37.2.74.11,1.11-.01.06-.1.14-.16.16-.33.07-.67.1-1.13-.17Z"/>
      <path d="m14.1,4.15c-.44-.77-.44-1.26-.07-1.86.31.63.31.71.07,1.86Z"/>
      <path d="m22.87.21c-.03.33-.06.66-.09.96-.54.07-.37-.37-.51-.55-.16-.2-.6,0-.58-.5.37-.15.75-.17,1.18.09Z"/>
      <path d="m18.59.21c.85-.26,1.43-.28,2.05-.05-.46.43-.9.45-2.05.05Z"/>
      <path d="m22.61,4.02c-.3-.59-.32-1.16-.1-1.76.13.05.24.06.25.1.15.56.18,1.12-.15,1.66Z"/>
      <path d="m17.96,8.78c-.96.48-1.57.44-1.92-.04.59-.18,1.16-.16,1.92.04Z"/>
      <path d="m13.96,4.95q.35.76.18,1.89c-.14-.09-.32-.15-.33-.23-.06-.5-.14-1.01.15-1.66Z"/>
      <path d="m17.93.18c-.8.39-1.08.4-1.86.12.39-.36.6-.38,1.86-.12Z"/>
      <path d="m22.6,4.93c.35.96.34,1.26.02,1.87-.34-.55-.35-.81-.02-1.87Z"/>
      <path d="m18.87,8.82c.72-.27.82-.27,1.82-.02-.15.12-.25.26-.36.28-.83.11-1.08.06-1.46-.25Z"/>
    </g>
  </g>
</svg>