<?xml version="1.0" encoding="UTF-8"?>
<svg id="Layer_2" data-name="Layer 2" xmlns="http://www.w3.org/2000/svg" viewBox="0 0 14.97 18.57">
  <defs>
    <style>
      .cls-1 {
        fill: #fff;
      }
    </style>
  </defs>
  <g id="Layer_1-2" data-name="Layer 1">
    <g>
      <path d="m11.07,11.14c.2.57.29,1.12-.14,1.64l.04-.03c-.32.03-.65.06-.97.09,0,.05,0,.1-.01.16.2.09.41.17.61.26.03.05.06.1.09.16.09.48-.01.89-.42,1.2-.11.09-.19.22-.28.33,0,0,.03-.04.03-.04-.25,0-.51-.02-.76-.03-.06-.06-.12-.13-.18-.19-.11-.26-.14-.58-.53-.77,0,.28,0,.47,0,.66-.15.09-.3.18-.45.28-.25.02-.5.04-.74.06-.07-.08-.15-.15-.22-.23-.26-.36-.69-.68-.36-1.22.03-.03.07-.07.1-.1.19-.14.47-.22.47-.56-.35-.02-.66-.04-.97-.06,0,0,.05.03.05.03-.37-.47-.3-1.01-.25-1.55.15-.09.3-.17.45-.26.17-.04.35-.08.52-.13h-.05c.24.16.48.33.89.63-.17-.71-.36-1.25.11-1.69-.27-.1-.46-.18-.69-.27-.11.21-.21.42-.31.62,0,0,.05-.03.05-.03-.34,0-.69,0-1.03,0-.06-.06-.12-.11-.18-.17-.14-.54-.04-1,.48-1.34-.36-.16-.67-.29-.99-.43l.03.05c-.11-.44.01-.83.22-1.21.38.02.76.04,1.2.07-.06-.4-.11-.79-.16-1.17.36.07.71.19,1.12,0-.4-.26-.76.05-1.12,0-.05.25-.09.5-.14.77-.26.05-.49.07-.7.14-.08.02-.12.15-.18.23-.28-.06-.57-.13-.87-.19-.11-.18-.24-.39-.38-.6,0,0,.03.05.03.05,0-.16,0-.33,0-.49.07-.01.16,0,.21-.03.07-.05.13-.13.16-.21,0-.02-.12-.13-.14-.12-.08.04-.16.11-.2.19-.03.05,0,.14,0,.21-.43-.06-.89.02-1.25-.31l.02.05q-.04-.61.33-1.2c-.22-.02-.41-.03-.59-.04-.06-.07-.13-.14-.19-.21,0-.24-.03-.48.04-.7.13-.43.34-.51.91-.41.1.02.2-.01.32-.15-.24-.09-.47-.18-.74-.29-.14-.47-.37-.93-.27-1.56.22,0,.45-.07.65-.01.56.17,1.11.39,1.7.6.34-.29.69-.6,1.03-.9.52.15.44.66.72.98.23.02.5.05.77.08.01.28-.03.54-.32.69-.03.02-.04.09-.06.15h.46c-.03-.31-.06-.58-.08-.84.15.01.3.04.45.03.81-.08.84-.06,1.14.87.32.08.79-.13.97.4.16.45.13.59-.31.87-.1.06-.21.11-.36.18.11.21.22.4.3.61.08.21-.17.44.04.68.04.05-.08.27-.17.39-.12.16-.28.29-.4.44-.04.05-.04.18,0,.22.07.08.19.18.27.17.3-.03.6-.11.88-.17.3.5-.05.91-.01,1.35.18.07.36.14.6.23.07.78-.1,1.48-.71,2.03-.25.23-.43.47-.36.83-.34-.08-.59-.22-.59-.63,0-.14-.1-.28-.16-.42-.18-.31-.35-.62-.53-.94.1-.12.21-.23.39-.44-.36.04-.57.06-.85.09.13.17.19.27.27.33.04.03.14,0,.21,0,0,.15,0,.3,0,.45,0,.43,0,.43.54.47,0,.47-.13.95.02,1.47.28-.17.47-.29.66-.41.27.09.54.19.81.28v-.03Zm-2.36-5.66c.44-.26.14-.38-.22-.62.11.3.17.45.23.61-.06-.02-.12-.05-.18-.06-.03,0-.07.04-.11.06.03-.01.07-.03.1-.03.06,0,.12.03.18.04Zm-3.26-3.27c-.04-.05-.08-.11-.13-.16,0,0-.05.02-.08.03.08.03.17.06.25.09-.01.24-.03.47-.03.71,0,.21.09.27.34.16-.11-.28-.23-.55-.34-.83Zm.66,2.65c.05.13.1.27.15.41.02-.08.08-.18.05-.22-.06-.07-.16-.11-.25-.16.23-.16.37-.47.72-.4,0-.23.07-.4.33-.33.18.05.35.2.48-.07q-.57-.31-1.08-1.3c.12.73.2,1.21.28,1.69-.3-.02-.6-.05-1.08-.09.2.24.3.35.39.46Zm3.23,7.66c0-.43-.22-.71-.61-.72-.42-.02-.66.2-.69.63-.03.36.29.67.66.66.33,0,.64-.28.64-.57Zm-1.3-4.34c-.04-.29-.27-.48-.57-.47-.26,0-.5.29-.49.56.01.26.31.49.57.47.29-.03.52-.29.49-.56Zm-3.23-3.59c.1-.1.31-.22.39-.4.11-.25-.15-.54-.43-.55-.27-.01-.44.13-.51.37-.07.24.17.53.55.57Zm3.96-.43c.25-.02.45-.24.42-.47-.03-.25-.24-.43-.49-.42-.24.01-.42.22-.41.49,0,.24.22.43.48.41Zm-.59,3.22c.41-.22.64-.35.85-.46-.21-.12-.42-.25-.65-.38-.04.19-.09.41-.19.84Zm-3.92-5.31c-.05.03-.11.06-.15.11,0,0,.02.05.03.08.05-.04.11-.08.16-.12,0,0-.03-.04-.04-.07Zm2.96,2.92s-.03.07-.02.1c0,.03.04.04.07.06,0-.03.02-.07.02-.1,0-.03-.04-.05-.06-.07Zm2.46,2.56s.01-.07.02-.1c-.04,0-.09.02-.13.03.01.03.02.07.04.1,0,0,.05-.01.07-.02Z"/>
      <path d="m6.61,10.97c-.15.09-.3.17-.45.26-.08.13-.13.3-.24.39-.12.1-.29.13-.44.19.11.35.21.7.29.97h.64s-.05-.03-.05-.03c.16.21.33.41.49.62-.03.03-.07.07-.1.1-.18.23-.35.47-.52.68-.49.18-.8-.06-1.06-.4,0-.11.05-.25.01-.34-.04-.08-.17-.11-.27-.15-.03-.01-.1.03-.1.04.03.1.04.21.1.28.07.07.19.1.3.15,0,.23,0,.45,0,.67.68.11,1.29.2,1.91.3.07.08.15.15.22.23.27.22.52.28.74-.06.15-.09.3-.18.45-.28.18.04.36.08.53.12.06.06.12.13.18.19.24.31.5.25.76.03,0,0-.03.04-.03.04.28-.1.57-.2.86-.3.2.46.19.84.02,1.29-.2.05-.42.14-.64.14-2.63.01-5.26.01-7.89,0-.23,0-.46-.08-.65-.11-.25-.38-.22-.74-.13-1.09.06-.2.2-.19.35-.06.07,0,.14,0,.21,0,.04,0,.07-.05.1-.07-.04,0-.07,0-.11.02-.07.02-.14.04-.2.06,0-.15.03-.3.02-.44-.02-.23-.06-.45-.09-.67,0,0-.03.05-.03.05.21-.14.49-.21.49-.58-.24-.07-.48-.14-.73-.21-.05-.06-.1-.11-.16-.16-.1-.46.2-.8.34-1.18l-.04.03c.4-.24.72.11,1.09.16,0-1.19.42-1.42,1.57-.84.18-.2.38-.41.58-.62,0,0-.03.04-.03.04.33-.02.48-.21.53-.52,0,0-.03.04-.03.04.17.01.34.03.51.04.06.06.12.11.18.17.51.31.65.31,1.03,0l-.05.03c.18.03.42-.07.47.21.04.2.01.4-.24.46-.08.02-.16.02-.23.03,0,0,.05.01.05.02-.21-.12-.37.01-.52.13Zm-2.18,3.88c.09,0,.18-.02.14-.01.04-.02-.03.01-.1.05-.07.02-.14.04-.2.07-.03.01-.05.04-.07.06.06.01.15.05.18.03.04-.05.04-.13.06-.2Zm-.39-1.88c.05-.3-.12-.59-.38-.64-.29-.06-.55.11-.63.4-.07.29.09.55.39.64.26.07.58-.13.62-.39Zm.28-1.08c.07-.02.15-.03.21-.08.08-.06.13-.14.2-.22-.09-.05-.19-.15-.28-.14-.08.01-.16.13-.19.22-.02.05.04.14.06.21Zm-.56,2.58c-.15-.1-.22-.15-.3-.2-.05.08-.11.16-.14.26,0,.02.11.11.16.11.08-.01.15-.08.29-.16Z"/>
      <path d="m13,7.08c.62.67,1.65.59,1.96,1.56-.67.9-1.74,1.18-2.73,1.71-.14-.27-.25-.5-.39-.77.57-.33,1.08-.63,1.7-.99-.27-.17-.46-.28-.64-.39-.28-.15-.58-.28-.85-.45-.64-.4-.64-.89,0-1.28.44-.26.9-.48,1.46-.78-.34-.18-.57-.31-.81-.43-.28-.15-.57-.29-.84-.47-.39-.27-.41-.72-.04-1,.22-.17.48-.29.72-.43.21-.12.42-.23.62-.35.03-.02.03-.07.04-.1-.14-.27-.3-.54-.43-.81-.12-.25-.21-.5-.35-.85.21-.36.47-.8.76-1.28.49.4.66.89.9,1.32-.11.19-.21.35-.33.55.31.18.6.32.85.51.38.28.38.71,0,1-.22.16-.48.29-.72.42-.27.15-.55.28-.85.43.28.41.71.46,1.05.65.35.2.79.35.81.81.02.47-.42.64-.77.82-.35.18-.71.35-1.14.57Z"/>
      <path d="m10.52,16.45c.1.93.09.99-.56,1.28-2.42,1.06-4.87,1.13-7.32.13-.79-.32-.8-.36-.67-1.37.84-.17,7.03-.21,8.55-.04Z"/>
      <path d="m1.77,7.04c.42-.17.73.2,1.17.27-.03-.27-.08-.5-.06-.72.01-.19.11-.38.16-.56l-.04.03c.51,0,1.03-.1,1.48.25l-.03-.05c0,.23,0,.46.02.69,0,.1.07.2.11.32h.6c.02.19.03.33.04.48.01.19,0,.39.23.48,0,0-.03-.05-.03-.05-.02.15-.05.3-.07.45-.2.05-.38.1-.54.14.21.38.41.76.61,1.13,0,0,.03-.04.03-.04-.18.17-.35.35-.53.52,0,0,.03-.04.03-.04q-.83.2-1.37-.63c-.62.78-.92.88-1.41.47-.46-.38-.42-.64.21-1.37-1.21-.54-1.23-.61-.57-1.8l-.04.04Zm2.43,1.34c-.02-.34-.31-.61-.63-.58-.27.03-.5.27-.52.57-.02.28.33.6.63.57.27-.03.54-.32.53-.56Z"/>
      <path d="m1.41,12.79c.06.05.11.1.16.16.05.27.37.46.24.79,0,0,.03-.05.03-.05-.15.21-.3.43-.49.7-.66-.32-1.05-.81-1.35-1.49.48-.27.91-.47,1.41-.11Z"/>
      <path d="m1.75,11.61c-.19-.13-.44-.21-.55-.39-.21-.37-.35-.78-.52-1.18.38-.28.7-.25,1.01-.02.28.21.55.44.81.68.21.19.11.56-.18.64-.22.06-.47.04-.6.3,0,0,.03-.03.03-.03Z"/>
      <path d="m2.83,4.14c.06.07.13.14.19.21.02.25.04.51.06.76.01.18,0,.37.21.47,0,0-.02-.05-.02-.05-.09.17-.17.34-.26.52,0,0,.04-.03.04-.03-.2-.01-.38-.04-.5-.24-.27-.48-.5-.97-.47-1.53.22-.31.5-.1.76-.12Z"/>
      <path d="m10.68,13.41c-.03-.05-.06-.11-.09-.16.12-.17.25-.34.37-.51l-.04.03c.24-.01.49-.02.65.2.2.29.39.58.59.88-.34.43-.73.34-1.09.31-.15-.29-.28-.52-.4-.76Z"/>
      <path d="m1.81,7c-.14.06-.28.12-.43.17-.25.09-.35-.05-.43-.32.41-.37.91-.49,1.46-.49.05,0,.11.17.15.25-.2.31-.67.02-.79.42,0,0,.04-.04.04-.04Z"/>
      <path d="m11.08,11.17c.54-.21.76.18,1.04.5-.42.45-.51.44-.69.09-.11-.21-.23-.4-.35-.61,0,0,0,.02,0,.02Z"/>
      <path class="cls-1" d="m7.22,4.97s.06.05.06.07c0,.03-.01.06-.02.1-.02-.02-.06-.04-.07-.06,0-.03.01-.06.02-.1Z"/>
      <path class="cls-1" d="m9.68,7.52s-.07.03-.07.02c-.02-.03-.03-.06-.04-.1.04,0,.09-.02.13-.03,0,.03-.01.07-.02.1Z"/>
      <path class="cls-1" d="m4.47,14.89c.07-.03.15-.07.1-.05.04,0-.05,0-.14.01,0,0,.03.04.03.04Z"/>
    </g>
  </g>
</svg>