<?xml version="1.0" encoding="UTF-8"?>
<svg id="Layer_2" data-name="Layer 2" xmlns="http://www.w3.org/2000/svg" viewBox="0 0 24.78 6.6">
  <g id="Layer_1-2" data-name="Layer 1">
    <g>
      <path d="m20.1,2.75h1.23c.12.37.23.73.34,1.08.28.13.53.14.58-.18.08-.44.09-.85-.39-1.15-.65-.4-.64-1.04-.5-1.7.06-.25.32-.37.56-.27.14.07.31.13.41.24.23.26.45.19.74.1.39-.12.59.06.66.46.11.63,0,1.19-.49,1.64-.14.13-.31.28-.38.45-.04.11.03.31.12.42.12.14.46.09.52-.07.1-.3.17-.6.26-.92.32-.23.65-.21.99-.03.07.42-.39.31-.58.63-.09.72-.19,1.54-.3,2.4-.82.39-1.64.12-2.44.18-.51-.83-.22-1.76-.51-2.61-.37.22-.28.53-.31.78-.03.28-.03.56-.06.84-.03.27-.1.54-.15.85-.87.31-1.71.16-2.63.07-.04-.53-.08-.96-.12-1.39q-.09-.93-.63-1.79h.86c.09.33.15.64.27.92.04.1.24.18.37.19.08,0,.22-.12.24-.21.12-.51-.01-.73-.51-1.22-.21-.21-.36-.52-.46-.81-.12-.33-.07-.4.27-1.12.46-.11.72.22,1.03.49.28-.07.57-.14.87-.21.33.46.44.9.27,1.39-.06.18-.08.39-.12.58-.19.13-.39.23-.57.38-.2.17-.25.43-.09.62.09.11.34.1.51.14.21-.41.26-.78.12-1.17Z"/>
      <path d="m3.35,5.38c-.08-.18-.16-.36-.28-.63.19.02.35-.01.44.05.51.39,1,.8,1.5,1.2.16.13.28.07.41-.14-.13-.32-.47-.48-.72-.72-.22-.21-.44-.43-.64-.62.15-.26.3-.23.43-.12.5.39,1,.79,1.52,1.16.05.03.21-.06.29-.12.03-.03.03-.16,0-.21-.09-.13-.2-.25-.32-.35-.33-.29-.68-.56-1-.86-.09-.09-.13-.24-.2-.38.42-.16.57.15.78.29.19.14.37.31.56.45.29.21.51.15.64-.21.02-.06.23-.11.26-.08.08.07.15.22.13.3-.08.26-.3.5-.3.75.01.6-.29.85-.81,1.02-.25.08-.46.3-.69.45-.43-.09-.82-.35-1.27-.1-.12.07-.4-.04-.54-.16-.99-.81-1.97-1.63-2.92-2.48C.2,3.52-.02,3.03,0,2.48c0-.13.09-.26.13-.37.33,0,.3.2.31.33.02.42.14.81.44,1.08.77.68,1.47,1.45,2.42,1.92.09.32.32.46.76.6-.21-.41-.37-.63-.71-.65Z"/>
      <path d="m2.08,0c.37.22.53.27.63.37.54.54,1.13.88,1.91.51.63.08,1.25.16,1.94.24.06.29.11.55.18.89.14.06.36.14.55.25.41.24.55.61.4,1-.13.36-.45.55-.84.52-.43-.04-.71-.32-.74-.78-.01-.19.04-.39.06-.61-.12-.04-.22-.09-.33-.1-.11,0-.22.04-.31.06-.1.41.65.42.34.95-.46-.17-.79-.48-1.05-.88-.13-.2.01-.54.23-.57.31-.04.62-.05,1.13-.09-.29-.17-.43-.32-.57-.33-.43-.04-.87-.05-1.3-.03-.27,0-.56.13-.81.09-.21-.04-.4-.24-.59-.38-.45-.36-.45-.36-.83-1.11Z"/>
      <path d="m15.82,3.58c-.46.35-.81.61-1.17.87-.13.09-.27.16-.48.27-.13-.31-.25-.59-.37-.89-.59-.04-1.17-.07-1.92-.12.18-.21.25-.39.34-.4.52-.03,1.03-.01,1.57-.01.13-.35.24-.63.36-.95.61.34,1.13.68,1.66,1.23Z"/>
      <path d="m10.34,5.87c-.45,0-.82-.37-.82-.83,0-.46.37-.83.82-.82.43,0,.85.42.84.83,0,.42-.42.82-.85.82Z"/>
      <path d="m8.08,4.22c.45-.02.84.34.86.79.02.46-.33.84-.79.86-.45.02-.84-.34-.86-.79-.02-.46.34-.84.79-.86Z"/>
      <path d="m9.14,3.79c-.47,0-.81-.36-.79-.83.02-.45.4-.81.85-.8.43.02.82.42.81.85,0,.44-.4.79-.86.78Z"/>
    </g>
  </g>
</svg>