<?xml version="1.0" encoding="UTF-8"?>
<svg id="Layer_2" data-name="Layer 2" xmlns="http://www.w3.org/2000/svg" viewBox="0 0 22.84 8.4">
  <g id="Layer_1-2" data-name="Layer 1">
    <g>
      <path d="m9.16,0c.4.02.74.05,1.15.07-.04.21-.03.38-.1.49-.66,1.04-.45,1.95.35,2.82.32.35.59.76.81,1.18.38.73.47,1.5.17,2.31-.62,1.68-2.49,1.79-3.47,1.2-.26-.15-.47-.43-.64-.69-.36-.54-.5-1.17-.51-1.82,0-.43,0-.87,0-1.41-.17.15-.31.22-.38.34-.44.8-.39,1.61,0,2.41.13.27.31.52.53.9-1.02-.07-1.74-.42-2.26-1.12-.63-.83-.57-1.97.12-2.89.39-.53.91-.89,1.51-1.14.37-.16.74-.29,1.11-.43.9-.34,1.48-.91,1.51-1.93,0-.07.05-.15.11-.3Z"/>
      <path d="m3.46.52h.99q-.25,1.62.43,2.67c-.42.66-.88,1.34-.87,2.23.01.92.47,1.57,1.08,2.14-.06.4-.34.32-.56.34-.45.04-.88,0-1.24-.32-.47-.4-.78-.91-.92-1.5-.12-.5-.2-1-.3-1.52-.62,1.05-.57,1.35.46,3.02-.83.16-1.49-.04-2-.6C.04,6.43-.1,5.78.07,5.08c.16-.69.57-1.23,1.14-1.63.32-.23.68-.42,1.02-.62.76-.46,1.32-1.04,1.15-2.03-.01-.07.04-.14.08-.28Z"/>
      <path d="m15.12,7.6c1.08.18,3.72.19,4.82.04.38-.59,0-1.32.3-1.98.59-.29,1.26-.01,1.95-.22.04-.22.11-.48.12-.74.01-1,0-2,0-2.99,0-.19.06-.39.11-.57.01-.04.13-.06.2-.08.03,0,.08.02.09.04.05.15.12.3.12.45,0,1.16,0,2.32,0,3.47,0,.42-.12.77-.43,1.07-.6.58-1.19,1.18-1.78,1.78-.29.3-.63.47-1.06.47-1.44,0-2.87,0-4.31-.01-.19,0-.37-.09-.54-.13-.12-.77-.2-5.52-.11-6.74.01-.14.08-.28.12-.4.35-.02.36.21.37.39.01,1.16.01,2.32.01,3.47,0,.87,0,1.75,0,2.68Zm6.23-1.39c-.71-.17-.74-.13-.59.61.31-.1.51-.29.59-.61Z"/>
      <path d="m21.62,3.27c-.07.29-.17.54-.17.79,0,.21.27.41,0,.71-.21-.05-.46-.15-.71-.15-.21,0-.42.11-.75.2.05-.27.06-.42.11-.54.09-.19.11-.33.03-.55-.18-.52-.1-.63.44-.42.37.14.58-.24,1.04-.04Z"/>
      <path d="m19.59,3.17c-.11.38-.24.62-.24.87,0,.21.13.41.25.77-.39-.1-.64-.2-.89-.2-.21,0-.42.12-.6.17-.24-.24-.13-.41-.06-.6.04-.1.07-.23.03-.32-.08-.22-.28-.45,0-.62.11-.07.35.11.53.1.29-.01.57-.09.99-.16Z"/>
      <path d="m15.93,4.78c-.2-.47.19-.68.03-1.06-.23-.52-.15-.56.45-.44.14.03.3.03.44,0,.61-.12.7-.08.47.42-.17.38.19.59.11.89-.06.05-.14.16-.17.14-.44-.2-.88-.06-1.33.04Z"/>
      <path d="m16.92,1.03c.04.16.11.31.1.45-.02.13-.1.29-.21.35-.14.09-.27-.12-.26-.41q0-.15.38-.39Z"/>
      <path d="m17.9,1.06c.03.13.11.29.09.43-.02.13-.1.29-.21.35-.14.08-.28-.13-.27-.41.01-.21.08-.38.39-.36Z"/>
      <path d="m18.88,1.9c-.43-.28-.51-.65-.23-.82.05-.03.26.07.26.12.02.22-.01.44-.03.7Z"/>
      <path d="m19.85,1.9c-.44-.27-.53-.63-.24-.82.05-.03.26.07.26.12.02.22,0,.44-.02.7Z"/>
      <path d="m20.8,1.04c.03.19.07.38.07.56,0,.09-.12.23-.19.23-.08,0-.22-.1-.24-.18-.07-.27-.1-.56.36-.61Z"/>
      <path d="m21.78,1.89c-.44-.28-.52-.64-.23-.82.05-.03.25.07.26.12.02.22-.01.44-.03.7Z"/>
      <path d="m15.96.82c.03.45.07.67.05.89,0,.06-.17.11-.26.16-.24-.31-.23-.57.21-1.05Z"/>
    </g>
  </g>
</svg>