<?xml version="1.0" encoding="UTF-8"?>
<svg id="Layer_2" data-name="Layer 2" xmlns="http://www.w3.org/2000/svg" viewBox="0 0 18.23 8.27">
  <defs>
    <style>
      .cls-1 {
        fill: #fff;
      }
    </style>
  </defs>
  <g id="Layer_1-2" data-name="Layer 1">
    <g>
      <path d="m14.61,4.61c-.24.26-.48.52-.8.87.03.38.08.84.12,1.33.64.17,1.24.17,1.82.27.47.08.93.2,1.39.34.08.02.16.2.15.29-.01.09-.13.2-.23.23-.15.05-.31.06-.47.06-1.92,0-3.84,0-5.75,0-.25,0-.49-.02-.63-.26-.09-.15.15-.39.56-.48.55-.11,1.1-.17,1.65-.26.23-.04.47-.09.72-.13.35-.82.23-1.73.53-2.54-.64-.22-1.27-.36-1.8-.66-.4-.22-.71-.64-1.01-1.01-.34-.43-.72-.85-.86-1.48.87-.09,1.65.08,2.29.55.63.46,1.14,1.08,1.73,1.67.26-.17.13-.48.21-.72.09-.26.15-.54.27-.79.12-.25.26-.5.44-.71.18-.21.39-.41.62-.56.22-.15.47-.24.78-.39.12.88-.15,1.58-.42,2.29-.1.26-.2.51-.3.76,0,0,.04-.04.04-.04-.18.09-.36.18-.54.27,0,0,.04-.03.04-.03-.31.14-.64.25-.92.43-.22.15-.37.39-.19.72.18,0,.36-.02.55-.03Z"/>
      <path d="m3.19,6.59c0,.77-.38,1.3-1.03,1.56-.63.25-1.18.08-1.64-.37-.47-.45-.7-1.08-.36-1.63.51-.81.44-1.66.44-2.53,0-.72,0-1.43,0-2.15,0-.27.04-.56.12-.82C.87.25,1.35-.04,1.76,0c.44.05.83.38.91.82.04.23.04.47.04.71,0,.84,0,1.67,0,2.51,0,.71-.1,1.43.37,2.07.11.14.08.38.1.48Zm-2.03-.67s-.09-.06-.14-.09c-.11.15-.25.29-.32.47-.18.44-.03.91.31,1.17.34.25.9.24,1.23-.02.37-.29.55-.78.28-1.17-.38-.55-.35-1.12-.35-1.72,0-.92,0-1.84,0-2.75,0-.24,0-.48-.03-.72-.03-.26-.16-.44-.45-.47-.25-.02-.45.15-.47.43-.03.51-.08,1.03.05,1.54.38,0,.65.12.66.54,0,.32,0,.64.01.96.06.82-.19,1.67.32,2.44.08.12-.07.46-.19.64-.15.22-.52.24-.77.11-.23-.12-.37-.33-.34-.58.03-.26.13-.51.2-.77Z"/>
      <path d="m6.96,4.56c.02.26.02.5.06.74.09.5.54.72.99.52.11-.05.19-.14.29-.21.16-.12.33-.24.52-.07.16.14.12.45-.07.64-.79.77-2.14.5-2.45-.52-.22-.74-.22-1.51,0-2.25.29-1.01,1.69-1.3,2.44-.54.08.08.14.2.16.31.01.1-.01.25-.08.32-.06.06-.23.1-.31.06-.18-.08-.32-.23-.5-.32-.44-.21-.91.02-1,.51-.05.27-.04.56-.06.81Z"/>
      <path d="m15.63,3.29c.42-.08.85-.2,1.28-.24.43-.04.87,0,1.32.32-.11.14-.2.31-.33.4-.84.58-1.71,1.01-2.77.59-.12-.05-.3.05-.44.08.17-.32.34-.63.5-.95,0,0-.04.03-.04.03.18-.09.36-.18.54-.27,0,0-.04.04-.04.04Z"/>
      <path d="m4.6,4.21c-.5.02-.92-.36-.94-.85-.02-.5.37-.89.89-.89.47,0,.83.32.87.79.04.51-.32.94-.82.96Zm.43-.85c-.19-.18-.3-.35-.45-.4-.21-.06-.37.09-.42.3-.06.24.15.5.38.46.15-.03.28-.19.49-.35Z"/>
      <path class="cls-1" d="m15.67,3.25c-.18.09-.36.18-.54.27.18-.09.36-.18.54-.27Z"/>
    </g>
  </g>
</svg>