<?xml version="1.0" encoding="UTF-8"?>
<svg id="Layer_2" data-name="Layer 2" xmlns="http://www.w3.org/2000/svg" viewBox="0 0 18.96 8.71">
  <g id="Layer_1-2" data-name="Layer 1">
    <g>
      <path d="m6.64,3.05c-1.22.52-1.65,1.5-1.91,2.63-.19.81-.46,1.6-.86,2.31-.43.19-.85.22-1.19,0-.41-.28-.81-.47-1.32-.42-.13.01-.3-.12-.41-.22-.14-.13-.28-.3-.36-.47C.08,5.68-.13,4.43.08,3.14c.15-.92.62-1.2,1.54-1.02.15.03.29.11.42.16.9-.67,1.77-.7,2.63-.01,1.25-.37,1.44-.31,1.97.78Zm-2.67-.25c-.47-.34-.49-.37-.7-.29-.21.08-.45.18-.58.35-.09.11-.05.38.02.53.04.09.29.15.41.12.38-.11.74-.27.85-.71Zm-2.22.92c-.08-.19-.12-.39-.24-.52-.08-.09-.31-.14-.41-.09-.34.18-.27.9.11,1.08.08.04.25.01.31-.05.1-.1.15-.26.23-.42Z"/>
      <path d="m4.19,8.69c-.02-.07-.07-.15-.05-.21.37-1.13.74-2.26,1.13-3.39.33-.98.85-1.73,2.05-1.55.27-.51.13-1.14.61-1.53.51.15.57.64.84,1.01.4.04.83.09,1.26.13-.14.9-.38,1.08-1.55,1.24.66,1.3.49,1.97-.8,2.59-1.11.53-2.21,1.08-3.27,1.73-.05.03-.14,0-.21,0Z"/>
      <path d="m11.48,8.26c-.04-.25-.13-.51-.13-.78-.01-1.68,0-3.35,0-5.03,0-.08-.02-.17.01-.24.07-.17.13-.36.26-.5.1-.11.32.19.32.51,0,1.44,0,2.87,0,4.31,0,.39.04.78.05,1.14,1.05.2,3.24.2,4.27,0,.06-.56.13-1.14.19-1.7.59-.38,1.24-.06,1.85-.35.03-.19.1-.41.1-.64.01-.88,0-1.76,0-2.63,0-.16,0-.33.05-.47.03-.08.16-.14.26-.17.04-.01.13.07.16.13.04.11.07.23.07.35,0,1.04,0,2.08,0,3.11,0,.43-.12.77-.43,1.07-.54.53-1.06,1.09-1.62,1.6-.19.18-.46.31-.72.37-.47.11-4.09,0-4.71-.1Zm6.13-1.69q-.6-.12-.45.42c.16-.15.27-.25.45-.42Z"/>
      <path d="m17.84,5.17c-.53-.05-.86-.32-1.21-.03-.02.01-.3-.24-.29-.26.24-.36.07-.74,0-1.03.3-.31.51-.02.72-.04.22-.02.43-.1.6-.14.27.32-.02.51-.01.72,0,.22.11.43.2.77Z"/>
      <path d="m15.9,5.12c-.46.06-.85-.28-1.2.04-.1-.1-.28-.29-.27-.3.3-.34.02-.68,0-1.01.26-.35.51,0,.75,0,.22,0,.4-.28.72-.04-.05.2-.16.41-.16.62,0,.21.09.43.16.7Z"/>
      <path d="m12.5,3.73c.39.02.68.07.97.03.49-.05.49-.07.41.48-.03.24-.54.74-.77.78-.11.02-.24.15-.32.11-.12-.05-.29-.27-.27-.29.28-.34.04-.67-.03-1.12Z"/>
      <path d="m2.64,1.22q.5-.24,1.08-1.22c.42.06.24.41.32.64.08.24.25.44.39.66-.32.39-.73.44-1.18.38-.29-.04-.53-.13-.6-.46Z"/>
      <path d="m17.21,2.06c0,.08,0,.17-.03.22-.05.09-.14.21-.22.22-.07.01-.22-.09-.24-.17-.04-.14-.04-.3,0-.44.02-.08.15-.14.25-.17.04-.01.13.07.17.13.04.06.05.14.07.21Z"/>
      <path d="m17.82,1.7s.08.02.11.04c.22.23.21.49.02.72-.04.04-.24.03-.29-.03-.2-.23-.16-.36.17-.74Z"/>
      <path d="m15.13,2.52c-.06-.04-.14-.07-.17-.13-.12-.22-.11-.44.08-.62.04-.04.15-.05.2-.03.22.12.25.45.09.7-.02.03-.06.05-.09.06-.03.01-.07.01-.11.02Z"/>
      <path d="m14.57,2.06c0,.08,0,.17-.03.22-.06.09-.14.21-.22.22-.07.01-.22-.09-.24-.17-.04-.14-.04-.3,0-.44.02-.08.15-.14.25-.17.04-.01.13.07.17.13.04.06.05.14.07.21Z"/>
      <path d="m16.11,1.71c.05.08.16.18.16.26-.01.18-.09.36-.15.53,0,0-.16,0-.2-.05-.18-.2-.17-.43-.03-.64.03-.05.13-.06.22-.1Z"/>
      <path d="m13.56,2.63c-.49-.3-.45-.55-.31-.81.03-.05.13-.09.19-.08.06,0,.17.08.17.12,0,.22-.02.43-.04.77Z"/>
      <path d="m12.6,1.72c.05.07.11.13.13.2.06.23.09.47-.19.57-.06.02-.22-.1-.25-.18-.09-.28-.08-.55.31-.58Z"/>
    </g>
  </g>
</svg>