<?xml version="1.0" encoding="UTF-8"?>
<svg id="Layer_2" data-name="Layer 2" xmlns="http://www.w3.org/2000/svg" viewBox="0 0 12.53 12.53">
  <g id="Layer_1-2" data-name="Layer 1">
    <g>
      <path d="m12.53,6.34c.08,2.92-2.33,6.23-6.3,6.19C2.3,12.49,0,9.29,0,6.25,0,3.3,2.22.01,6.27,0c4.07-.01,6.4,3.38,6.26,6.34ZM6.35.79C3.73.6.79,2.79.76,6.26c-.02,2.81,2.12,5.43,5.45,5.53,3,.09,5.47-2.39,5.57-5.39.11-3.06-2.54-5.73-5.44-5.61Z"/>
      <path d="m6.42,6.8c-1.22-.38-2.26-.88-3.31-1.35-.35-.16-.48-.4-.4-.64.09-.29.42-.43.8-.28.59.23,1.17.49,1.76.74.36.15.73.3,1.15.46.72-.53,1.34-1.14,2-1.7.3-.26.6-.52.92-.75.09-.07.27,0,.56,0-1.07,1.39-2.57,2.11-3.48,3.54Z"/>
      <path d="m2.08,6.25c0,.25-.29.53-.53.53-.25,0-.52-.31-.5-.56.02-.21.26-.44.47-.46.25-.02.55.25.56.49Z"/>
      <path d="m11.5,6.27c0,.26-.27.52-.53.5-.26-.02-.48-.29-.45-.57.03-.23.23-.43.45-.44.26-.01.53.25.52.51Z"/>
      <path d="m6.35,1.07c.1.1.31.22.38.4.1.27-.15.56-.43.57-.24,0-.47-.16-.52-.39-.06-.27.15-.54.57-.58Z"/>
      <path d="m6.4,10.49c.09.11.28.26.34.44.09.28-.17.53-.47.52-.26-.01-.46-.19-.48-.42-.02-.29.21-.53.61-.54Z"/>
    </g>
  </g>
</svg>