<?xml version="1.0" encoding="UTF-8"?>
<svg id="Layer_2" data-name="Layer 2" xmlns="http://www.w3.org/2000/svg" viewBox="0 0 21.7 9.24">
  <g id="Layer_1-2" data-name="Layer 1">
    <g>
      <path d="m8.1,6.05c.28,1.76-.28,2.44-1.93,2.36-.42.33-.8.82-1.47.82-.65,0-1.16-.23-1.57-.78-.75.34-1.43.3-1.99-.31-.46-.51-.42-1.08-.13-1.7C.47,6.02-.03,5.57,0,4.79c.03-.64.41-1.01.83-1.31,0-.47-.06-.91.02-1.32.09-.48.39-.92.87-1.07.4-.12.85-.09,1.32-.13,1.02-1.31,1.76-1.29,2.87.15.17-.02.36-.03.55-.05.64-.07,1.18.15,1.61.62.43.47.46,1,.12,1.48,1,1.38.98,1.77-.09,2.9Zm-5.93-.27c0,.16.05.31,0,.38-.17.22-.4.39-.57.61-.21.27-.24.58-.07.9.17.3.56.46.94.36.15-.04.29-.13.41-.22.19-.13.27-.4.65-.37.05.19.09.41.17.61.17.45.57.67,1.04.61.5-.07.73-.32.77-.88.01-.19-.08-.4.27-.52.17.14.37.32.59.47.2.14.43.19.68.08.68-.31.8-1.05.26-1.54-.19-.17-.58-.15-.55-.55.21-.33.58-.13.86-.22.45-.15.69-.42.68-.86,0-.45-.22-.75-.67-.86-.24-.06-.5-.09-.74-.14.01-.13,0-.19.02-.2.18-.15.38-.28.56-.44.44-.37.4-.89-.1-1.16-.52-.29-.93-.24-1.42.17-.16.14-.33.27-.61.49-.03-.46-.03-.77-.08-1.08-.08-.5-.48-.82-.9-.79-.37.03-.65.34-.71.83-.03.27-.04.54-.05.79-.5.15-.57-.27-.78-.47-.23-.21-.47-.31-.76-.2-.68.26-.88,1.16-.37,1.67.19.19.43.34.72.55-.16.12-.27.27-.39.28-.23.02-.47-.07-.71-.04-.42.04-.73.4-.73.81,0,.46.32.87.76.93.26.04.54,0,.83,0Z"/>
      <path d="m11.43,9.1c-.03-.37-.07-.65-.07-.92,0-2.36,0-4.71,0-7.07,0-.27.04-.55.1-.82.02-.08.18-.17.27-.17.09,0,.23.12.25.2.05.31.06.63.06.95,0,2,0,3.99,0,5.99,0,.39.03.78.05,1.14,1.06.23,5.04.23,6.05,0,.31-.77-.03-1.64.23-2.45.42-.23.87-.13,1.3-.15.39-.02.79-.02,1.11-.03.33-.39.27-.76.27-1.11,0-1.12,0-2.24,0-3.35,0-.16-.02-.32-.01-.48,0-.54.16-.81.4-.72.36.14.26.46.26.72,0,1.4-.01,2.8,0,4.19,0,.6-.15,1.07-.6,1.49-.76.71-1.48,1.45-2.21,2.2-.32.33-.68.52-1.16.51-1.92-.01-3.83,0-5.75-.01-.15,0-.3-.06-.56-.12Zm7.54-2.61c.02.41.03.66.04.95q.52-.31.89-.86c-.29-.03-.54-.05-.93-.09Z"/>
      <path d="m14.05,3.3c.51-.33,1.03-.7,1.73-.49.19.93.2,3,0,4.09h-.77c-.15-.52-.09-1-.1-1.47-.01-.48,0-.95,0-1.51-.24,0-.43.03-.6,0-.29-.07-.33-.31-.26-.61Z"/>
      <path d="m17.79,6.36c.02.34-.23.64-.55.65-.31.01-.61-.28-.61-.6,0-.28.22-.53.5-.57.35-.05.63.18.65.52Z"/>
      <path d="m20.48.76c-.02.08-.05.24-.12.37-.02.05-.13.09-.19.09-.07,0-.18-.05-.19-.1-.05-.22-.11-.46-.09-.68.01-.12.18-.22.28-.32.09.11.2.2.28.32.04.06.02.15.03.31Z"/>
      <path d="m13.23.78c-.01.06-.01.19-.07.28-.06.08-.18.17-.27.17-.09,0-.21-.1-.26-.19-.06-.09-.07-.22-.07-.33,0-.24.03-.47.3-.56.22-.07.37.18.36.64Z"/>
      <path d="m14.48.66c-.05.2-.07.32-.12.42-.03.06-.12.13-.18.13-.1-.02-.23-.06-.29-.14-.07-.08-.09-.22-.1-.33-.03-.39.2-.72.38-.58.16.12.23.36.31.5Z"/>
      <path d="m15.67.72c-.04.14-.05.26-.1.37-.03.06-.11.12-.18.13-.07.02-.18,0-.22-.04-.25-.29-.25-.69,0-.98.04-.05.15-.06.22-.04.07.01.15.07.17.13.05.15.07.3.1.44Z"/>
      <path d="m16.67,1.28c-.49-.34-.53-.44-.41-.89.06-.23.23-.31.47-.2.18.33.19.67-.05,1.09Z"/>
      <path d="m17.93,1.19c-.44-.06-.52-.16-.51-.57.01-.34.06-.38.51-.45.18.34.18.68,0,1.02Z"/>
      <path d="m19.13.18c.21.34.15.68.02,1.02-.45-.07-.54-.17-.52-.58.02-.34.07-.39.5-.44Z"/>
      <path d="m4.53,6.68c-1.08.03-2.01-.85-2.03-1.93-.02-1.04.93-2,1.98-2,1.01,0,1.9.86,1.96,1.89.06,1.07-.82,2-1.91,2.03Zm1.29-1.99c-.02-.78-.6-1.32-1.39-1.3-.78.02-1.32.6-1.3,1.39.02.77.62,1.33,1.39,1.31.76-.02,1.32-.62,1.3-1.4Z"/>
    </g>
  </g>
</svg>