<?xml version="1.0" encoding="UTF-8"?>
<svg id="Layer_2" data-name="Layer 2" xmlns="http://www.w3.org/2000/svg" viewBox="0 0 20.11 10.73">
  <g id="Layer_1-2" data-name="Layer 1">
    <g>
      <path d="m19.75.49c.28.89.47,1.65.3,2.47-.19.91-.63,1.64-1.43,2.12-.44.27-.91.49-1.37.73-.31.17-.67.28-.85.75.13.72.73,1.18,1.27,1.88.08-.32.12-.5.18-.73.72-.13,1.3.18,1.8.67.38.38.37.9-.04,1.28-.23.21-.51.4-.8.5-1.01.37-2.03.36-3.05-.02-.15-.06-.29-.13-.43-.22-.32-.2-.57-.46-.62-.84-.04-.39.17-.68.55-.91.15.06.33.13.5.22.17.08.33.17.61.32-.05-.5-.33-.74-.51-1.03-.64-1.06-.61-1.25.39-2.16-.28-1.24-.02-2.41.76-3.45.65-.87,1.57-1.31,2.72-1.57Z"/>
      <path d="m2.11,10.73c-1.72-.05-2.56-1.84-1.87-2.83.59-.84.53-1.71.53-2.62,0-1.12,0-2.23,0-3.35,0-.35.03-.72.13-1.06C1.09.3,1.6-.02,2.19,0c.58.02,1.07.4,1.2.98.07.35.08.71.08,1.07,0,1.31.02,2.63,0,3.94,0,.65.07,1.24.41,1.82.64,1.11-.05,2.78-1.77,2.91Zm.73-6.43c0-.8,0-1.6,0-2.39,0-.24-.01-.48-.06-.71-.07-.33-.39-.53-.72-.49-.28.03-.53.24-.57.53-.04.28-.04.56-.04.84,0,1.4,0,2.79,0,4.19,0,.6,0,1.15-.48,1.66-.42.44-.38,1.03-.03,1.55.41.61,1.17.79,1.79.43.66-.38.96-1.19.5-1.85-.38-.55-.4-1.1-.4-1.7,0-.68,0-1.36,0-2.04Z"/>
      <path d="m11.24,6.94c.47.48.5.58.32.86-.42.64-1.04.86-1.76.79-.72-.07-1.32-.41-1.56-1.12-.35-1.05-.37-2.14-.01-3.18.44-1.26,2.27-1.58,3.17-.59.13.14.23.34.26.52.02.12-.1.29-.2.39-.07.06-.25.09-.33.05-.2-.12-.36-.31-.56-.44-.63-.4-1.36-.12-1.44.62-.08.67-.08,1.36,0,2.02.1.8.85,1.05,1.52.57.19-.14.36-.3.6-.5Z"/>
      <path d="m7.03,4.42c-.05.63-.6,1.11-1.22,1.06-.68-.06-1.13-.63-1.05-1.34.07-.63.63-1.06,1.27-.99.62.08,1.05.62,1,1.27Zm-.59-.06c.02-.29-.18-.55-.46-.6-.31-.05-.63.23-.63.55,0,.28.23.52.53.53.29.01.54-.2.56-.48Z"/>
      <path d="m2.97,8.64c-.04.42-.19.69-.5.85-.33.17-.7.11-.99-.14-.27-.23-.34-.53-.27-.86.03-.15.1-.31.21-.42.3-.28.29-.63.29-.99,0-.92,0-1.83,0-2.75,0-.23.04-.47.1-.7.02-.09.17-.19.26-.19.09,0,.23.11.25.19.05.23.07.47.07.71,0,.8,0,1.59,0,2.39,0,.51-.07,1.03.39,1.43.13.11.13.36.17.47Z"/>
    </g>
  </g>
</svg>