<?xml version="1.0" encoding="UTF-8"?>
<svg id="Layer_2" data-name="Layer 2" xmlns="http://www.w3.org/2000/svg" viewBox="0 0 22.68 12.3">
  <g id="Layer_1-2" data-name="Layer 1">
    <g>
      <path d="m3.9,8.77c.39.12.86.21,1.29.4.32.14.62.36.86.61.39.41.4,1,.01,1.41-.27.28-.61.52-.97.67-1.27.54-2.56.52-3.84.02-.22-.09-.44-.2-.63-.34-.41-.29-.71-.67-.61-1.21.1-.56.5-.9,1-1.09.15-.06.35.03.64.06-.19-.34-.35-.6-.49-.87-.43-.81-.34-1.24.38-1.87.12-.1.24-.2.4-.33-.42-1.58-.04-3.01.92-4.28C3.66.89,4.8.37,6.11.08c.54,1.16.56,2.3.29,3.44-.21.88-.75,1.59-1.52,2.08-.57.36-1.17.68-1.78.96-.99.45-1.54.85-.51,2.05.36.42.69.87,1.06,1.34.28-.26.04-.45,0-.64-.04-.2-.07-.39.24-.54Z"/>
      <path d="m16.5,0c3.08-.09,6.16,2.43,6.18,6.15.01,3.41-2.79,6.15-6.2,6.14-3.03,0-6.08-2.41-6.11-6.11C10.33,2.54,13.34-.07,16.5,0Zm5.4,6.13c.12-3.09-2.69-5.47-5.39-5.4-3,.09-5.46,2.43-5.41,5.41.06,3.38,2.77,5.43,5.42,5.41,3.26-.02,5.53-2.8,5.38-5.43Z"/>
      <path d="m19.92,3.34c-.91,1.19-2.36,1.86-3.17,3.22-.21-.02-.46.01-.67-.07-.85-.34-1.68-.71-2.52-1.07-.14-.06-.32-.12-.4-.24-.09-.15-.17-.39-.11-.52.06-.14.3-.26.47-.26.23,0,.46.11.67.2.81.33,1.61.67,2.46,1.03.25-.19.51-.37.75-.57.66-.57,1.32-1.15,1.98-1.72.16-.14.33-.23.55,0Z"/>
      <path d="m17.02,10.7c-.04.38-.34.63-.59.57-.22-.05-.39-.29-.38-.53.01-.3.3-.55.56-.43.18.08.31.29.41.39Z"/>
      <path d="m11.88,5.63c.25,0,.53.28.52.54-.01.2-.26.42-.48.43-.22.01-.48-.2-.51-.4-.03-.26.22-.56.48-.57Z"/>
      <path d="m21.6,6.3c-.12.07-.28.25-.47.28-.29.05-.52-.24-.47-.51.05-.26.22-.4.48-.42.26-.01.48.25.46.65Z"/>
      <path d="m16.42,1.03c.41.02.63.27.58.54-.05.26-.22.4-.49.4-.29,0-.53-.26-.44-.53.06-.18.26-.31.35-.41Z"/>
    </g>
  </g>
</svg>