<?xml version="1.0" encoding="UTF-8"?>
<svg id="Layer_2" data-name="Layer 2" xmlns="http://www.w3.org/2000/svg" viewBox="0 0 18.26 15.7">
  <defs>
    <style>
      .cls-1 {
        fill: #fff;
      }
    </style>
  </defs>
  <g id="Layer_1-2" data-name="Layer 1">
    <g>
      <path d="m13.9,14.05c.05.66-.26,1.01-.9,1.2-2.1.64-4.17.6-6.22-.19-.29-.11-.6-.26-.82-.47-.26-.25-.07-.6-.07-.91,0-.25.06-.59-.34-.65l.05.05c.08-.17.17-.34.25-.52,0,0-.05.03-.05.03.17-.08.4-.12.49-.25.17-.25.25-.55.39-.87.35-.02.69-.05,1.04-.07.3.47.75.54,1.24.43.09-.02.15-.15.22-.23.27,0,.51-.05.78.12.37.23.8.29,1.14-.12.51-.08,1.02-.34,1.55-.06.13.23.26.46.38.69.03.03.06.06.09.09.15.12.3.24.43.34-.09.26-.18.44-.2.62-.04.38.06.69.52.74l.02.02Z"/>
      <path d="m9.99.69c.6-.22,1.07-.46,1.57-.57,1.22-.27,2.38-.08,3.44.6.93.6,1.63,1.4,2.17,2.36.19.34.43.65.73,1.11-.1.35-.24.84-.38,1.38-.66-.14-.87-.71-1.27-1.03.03-.36.33-.63.08-1.02-.42-.64-.86-1.25-1.48-1.71-1.27-.95-2.62-1.1-4.03-.34-.25.13-.48.28-.76.44-.3-.17-.59-.37-.91-.52-1.21-.58-2.39-.54-3.54.17-.8.5-1.38,1.2-1.85,2-.2.33-.06.59.13.91-.36.39-.66.85-1.23,1.15-.23-.53-.41-.99-.45-1.45.26-.4.52-.74.74-1.12.48-.85,1.08-1.58,1.88-2.14C6.22-.1,7.73-.26,9.34.39c.22.09.43.2.66.3Z"/>
      <path d="m6.09,10.17c-.17-.01-.35-.03-.52-.04-.1-.12-.2-.25-.3-.37-.06-.15-.13-.29-.21-.49-.63.36-1.33.08-2.07.21-.14.31-.29.65-.47,1.04-.72-.19-.96-.77-1.28-1.38.62-.34,1.19-.52,1.87-.3.2-.18.39-.36.59-.54-.09-.09-.12-.17-.18-.19-.07-.03-.16-.01-.23-.03-.79-.17-.98-.57-.61-1.27.23-.44.46-.52.98-.34.14.05.28.13.51.25-.02-.28-.02-.46-.04-.64-.03-.34.03-.63.4-.78.41-.17.79-.12,1.12.16.1.09.15.27.18.42.04.22.03.44.05.79.22-.16.33-.24.45-.33,0,0-.03.01-.03.01.25,0,.5.01.76.02.06.06.12.13.18.19.2.4.2.39.69.22.09-.03.22.03.33.05l-.03-.03c.07.2.14.41.25.72-.38-.04-.63-.06-.94-.09-.32.39-.71.75-1.59.63.78.51.95,1.04.85,1.67-.07.07-.14.13-.2.2-.17.09-.35.17-.52.26,0,0,.04-.02.04-.02Zm-1.12-1.73c.61-.37.7-.49.59-.83-.09-.29-.31-.46-.6-.46-.3,0-.51.16-.58.47-.09.38-.02.48.59.83Z"/>
      <path d="m14.21,5.17c.2,0,.4,0,.59.03.69.12.87.36.79,1.05-.02.15-.07.29-.14.57.27-.12.39-.17.52-.23.71-.3,1.15-.11,1.29.63.06.29-.04.62-.07.93h0c-.38.05-.76.09-1.22.15.25.3.47.54.67.8.12.16-.04.32-.34.35,0,0,0,0,0,0-.5-.4-1.04-.23-1.6-.18-.1.21-.16.4-.26.56-.32.51-.49.56-1.08.35-.11-.04-.21-.1-.32-.16l-.04-.03c-.6-.72,0-1.18.51-1.72-.33-.03-.52-.02-.71-.07-.58-.15-.8-.51-.61-1.05.1-.29.26-.57.39-.85l-.05.03c.45.11.89.22,1.53.38-.49-.67-.24-1.17.21-1.61,0,0-.05.04-.05.04Zm.51,2.1c-.38,0-.66.27-.69.66-.02.29.28.58.61.62.37.04.76-.27.75-.6-.01-.39-.29-.68-.67-.68Z"/>
      <path d="m16.29,9.46s0,0,0,0c.03.46.05.93.08,1.45.12-.05.24-.12.38-.16.76-.25,1.37.25,1.2,1.03-.04.19-.25.4-.44.5-.2.1-.46.08-.77.13.21.24.4.42.54.64.24.36.13.73-.26,1.03-.44.33-.84.31-1.14-.08-.12-.15-.19-.34-.29-.52-.27.27-.48.63-.79.76-.23.09-.59-.11-.89-.18,0,0-.02-.02-.02-.02-.29-.39-.4-.77,0-1.15.13-.12.35-.2.29-.5-.34-.02-.69-.03-1.04-.05-.03-.03-.06-.06-.09-.09,0-.37.01-.74.02-1.1l-.05.03c.25-.17.49-.43.76-.5.27-.06.58.09.91.15,0-.2,0-.36,0-.51.04-.62.19-.8.76-.84.28-.02.56,0,.84,0Zm-.14,2.55c-.04-.41-.32-.66-.72-.6-.33.04-.53.32-.52.69.01.3.35.58.66.55.32-.03.61-.34.58-.64Z"/>
      <path d="m5.55,13.03c.01.27.11.57.02.8-.09.23-.35.41-.58.55-.29.19-.61.1-.83-.2-.14-.19-.23-.41-.38-.68-.08.16-.14.29-.21.41-.43.68-.87.73-1.41.19-.3-.3-.35-.6-.11-.95.12-.18.28-.33.51-.6h-.82l.04.04c-.55-.69-.58-.9-.25-1.46.19-.31.45-.42.81-.3.21.07.42.17.71.3-.04-.23-.07-.38-.09-.53-.13-.73.28-.95.87-.94.62.02.82.25.78.91,0,.15-.05.3-.09.54.3-.12.53-.27.77-.3.26-.03.53.06.8.09,0,0-.05-.04-.05-.04q.23,1.08-.25,1.72l.05-.03c-.24,0-.49.02-.99.04.39.25.56.37.74.48l-.05-.05Zm-1.15-.87c-.04-.41-.32-.63-.73-.57-.33.05-.53.33-.5.68.03.29.38.57.67.53.31-.04.58-.35.56-.65Z"/>
      <path d="m7.22,6.56c-.06-.06-.12-.13-.18-.19q-.38-.31-.76-.02s.03-.01.03-.01c-.08-.13-.17-.26-.28-.42.24-.28.45-.54.73-.87-.26-.04-.45-.06-.63-.1-.54-.14-.72-.51-.52-1.09.2-.59.62-.72,1-.51.16.09.33.17.63.31-.06-.32-.12-.5-.13-.68-.04-.55.3-.88.87-.87.57,0,.87.32.83.9-.01.18-.06.36-.11.66.26-.13.39-.21.52-.27.59-.23,1.04-.02,1.14.58.05.31,0,.63,0,.95,0,0,.02-.04.02-.04-.38.05-.75.09-1.14.14.12.48.78.6.53,1.22-.15.03-.33.07-.52.1-.23.04-.29.24-.38.41,0,0,.05-.04.05-.04-.24.03-.49.06-.73.08l.03.03c-.11-.59-.11-.58-.58-.32-.12.07-.3.03-.45.05Zm.74-1.25c.26.02.64-.3.67-.56.03-.34-.28-.7-.62-.7-.36,0-.67.3-.66.66,0,.27.33.58.62.6Z"/>
      <path d="m10.39,4.92c.35-.3.11-.77.32-1.17.2.07.42.13.64.21.23-.16.04-.35.02-.52-.03-.35.03-.63.37-.79.39-.18.87-.13,1.11.14.09.11.15.28.17.43.03.19,0,.39,0,.56.23.21.38-.02.56-.04.63-.09,1.08.34.95.98-.03.17-.21.31-.32.46,0,0,.05-.04.05-.04-.4-.08-.6.23-.83.35.02.24.03.39.04.59-.18.02-.33.04-.48.05-.2,0-.39.02-.48.24,0,0,.05-.03.05-.03-.14,0-.35-.04-.42.04-.12.14-.15.36-.25.53-.31.5-.77.54-1.15.08-.17-.2-.27-.46-.42-.73.25-.26.46-.49.67-.72,0,0-.05-.06-.07-.09-.21-.06-.42-.12-.66-.18.06-.16.1-.27.14-.37l-.02.04Zm2.42.17c0-.4-.28-.68-.65-.65-.32.02-.55.27-.56.62-.01.28.29.59.6.59.3,0,.62-.29.62-.57Z"/>
      <path d="m6.58,9.93c.07-.07.14-.13.2-.2h.76s-.05-.05-.05-.05v.76s.03-.04.03-.04c-.12.23-.25.45-.38.7-.39.09-.76.04-1.09-.23,0,0,.05.04.05.04-.13-.25-.37-.49,0-.75,0,0-.04.02-.04.02.17-.09.35-.17.52-.26Z"/>
      <path d="m1.75,12.56c-.05.47-.12.56-.4.55-.54-.03-.99-.22-1.35-.62.36-.47.36-.48.91-.71.25.32.28.87.88.82,0,0-.04-.04-.04-.04Z"/>
      <path d="m18.14,10.38h-1.45c.13-.31.24-.55.36-.83.48.08.79.29,1.09.83Z"/>
      <path d="m17.5,12.7c.3-.21.51-.14.63.1.08.16.11.35.13.52,0,.04-.11.13-.17.13-.1,0-.26-.01-.3-.08-.12-.21-.21-.45-.3-.67Z"/>
      <path d="m5.27,9.76c.1.12.2.25.3.37-.02.07-.02.19-.06.21-.17.05-.35.08-.52.11,0-.18-.04-.37-.01-.55.01-.06.19-.09.3-.13Z"/>
      <path d="m17.18,8.16c.18-.05.36-.1.56-.16-.11.45-.39.05-.55.16,0,0,0,0,0,0Z"/>
      <path class="cls-1" d="m6.58,9.93c-.17.09-.35.17-.52.26.17-.09.35-.17.52-.26Z"/>
      <path d="m13.06,11.13h-1.11c-.05-.22-.08-.4-.13-.57-.05-.18-.11-.36-.16-.55.2-.33.47-.39.8-.25.18.08.35.17.52.25,0,0,.04.03.04.03.1.38.04.75,0,1.12l.05-.03Z"/>
      <path d="m7.54,9.73c-.39-.41-.68-.83-.36-1.43.22-.42.46-.55.95-.45.18.04.35.1.53.15.14-.46-.09-.93.28-1.28,0,0-.05.04-.05.04.15-.05.3-.14.45-.15.88-.06,1.1.17,1.07,1.09,0,.12.01.23.03.41.21-.09.38-.18.56-.24.51-.16.85,0,1.02.51.1.31.14.62-.08.99-.27.1-.6.23-.96.37.05.09.09.19.15.26q.54.64.04,1.4c-.04.06-.04.14-.06.22-.12,0-.24-.03-.35,0-.45.07-.76-.09-.94-.51-.06-.14-.15-.27-.29-.51-.14.41-.24.72-.34,1.03-.51.07-.97-.08-1.42-.28-.09-.32-.17-.64-.26-.95,0,0-.03.04-.03.04.3-.16.56-.35.68-.71-.13-.03-.24-.08-.35-.09-.11,0-.22.03-.34.04,0,0,.05.04.05.04Zm2.1.2c.36-.03.63-.39.57-.74-.06-.38-.27-.58-.62-.57-.42,0-.72.38-.65.8.05.27.41.54.69.51Z"/>
    </g>
  </g>
</svg>