<?xml version="1.0" encoding="UTF-8"?>
<svg id="Layer_2" data-name="Layer 2" xmlns="http://www.w3.org/2000/svg" viewBox="0 0 17.25 13.94">
  <g id="Layer_1-2" data-name="Layer 1">
    <g>
      <path d="m5.42,6.81v-.57c-.08-.03-.15-.09-.21-.08-.23.07-.45.16-.68.23-1.01.31-2.15-.14-2.69-1.05-.38-.64-.12-1.27.59-1.52.62-.22,1.18-.06,1.73.21.3.15.59.32,1,.54-1.07-1.72-.9-3.17.46-4.53.66.52,1.18,1.18,1.45,1.96.24.67-.04,1.33-.39,1.94-.17.29-.51.52-.46.92.21.15.28-.05.4-.12.14-.08.24-.21.37-.3.55-.38,1.16-.53,1.82-.39.65.14.99.71.8,1.36-.24.85-1.12,1.37-2.08,1.18-.46-.09-.91-.27-1.38-.41-.28.23-.21.49-.08.81.92-.01,1.87.16,2.79-.25.43-.19.68.02.71.49.11,1.42-.86,2.18-2.22,1.72-.41-.14-.79-.35-1.17-.52-.31.25-.12.49.04.61.21.16.5.27.77.29,1.11.08,1.8.79,2.46,1.55.2.24.35.55.17.89-.19.36-.52.47-.9.47-.63,0-1.17-.23-1.61-.68-.25-.25-.46-.53-.7-.82-.35.3-.23.59-.25.85-.02.24,0,.48,0,.72,0,.27.01.54.02.89.97.09,1.88.01,2.79.05.87.04,1.75-.12,2.58.1.1.25.12.45-.13.52-.19.05-.39.05-.59.05-3.36,0-6.72,0-10.07,0-.23,0-.47-.05-.67-.07-.17-.32-.1-.52.21-.57.27-.04.56-.03.84-.03,1,0,2,0,3,0,.36,0,.71,0,1.07,0,.35-.75.19-1.47.25-2.16-.35-.19-.44.12-.58.27-.55.55-1.22.75-1.97.66-.23-.03-.46-.12-.67-.23-.33-.18-.41-.48-.22-.81.39-.7.97-1.16,1.75-1.35.39-.09.79-.14,1.17-.24.51-.12.57-.28.42-1.05-.29.15-.57.29-.85.43-.53.26-1.08.32-1.62.08-.38-.17-.69-.44-.71-.89-.03-.49.25-.84.67-1.04.21-.1.46-.18.68-.18.59,0,1.18.05,1.91.08Zm-1.36,3.51c-.67-.02-1.22.14-1.51.9.6.32,1.11.16,1.6-.08.48-.23.64-.5.74-1.03-.33-.08-.62.02-.86.24l.03-.03Zm2.66-4.86s-.09-.02-.12,0c-.03.02-.07.09-.06.09.14.12.26.29.42.35.9.35,1.75.13,2.23-.55.21-.3.1-.68-.25-.74-.92-.16-1.74-.07-2.23.87v-.02ZM5.6.8c-.6.7-.81,1.45-.57,2.28.14.48.33.97.88,1.15,1.05-1.36.99-2.02-.32-3.42Zm-.56,4.79c-.53-.77-1.21-1.09-1.9-1.38-.19-.08-.47,0-.69.05-.31.08-.43.39-.28.66.26.48.64.81,1.2.88.51.07,1.02.04,1.67-.21Zm1.54,4.32c.53.95.76,1.25,1.35,1.62.19.12.42.22.65.26.13.03.37-.04.41-.13.07-.16.06-.38,0-.55-.04-.14-.18-.26-.3-.36-.52-.44-1.12-.74-1.77-.91-.1-.03-.22.04-.34.06Zm-1.12-2.37c-.89-.53-1.72-.45-2.57-.14-.04.01-.07.04-.1.06-.2.13-.23.46-.04.62.15.12.33.27.51.28.83.08,1.54-.19,2.2-.83Zm.7.18c.79.76,1.56.83,2.34.76.54-.05.75-.49.58-1.21-.84.65-1.81.29-2.92.45Z"/>
      <path d="m15.09,2.72c0,.52,0,1.03-.02,1.54,0,.16,0,.33-.07.46-.04.08-.19.16-.28.15-.1,0-.27-.11-.28-.18-.04-.39-.05-.79-.06-1.19,0-.24,0-.47,0-.61-.29-.4-.68-.14-.97-.43.11-.61.72-.98.97-1.65-.34-.06-.64-.09-.92-.17-.23-.07-.26-.27-.16-.54.91-.18,1.86-.07,2.78-.07.15.52.13.59-.17.64-.23.04-.47.05-.81.08.12.25.21.45.32.63.22.36.59.64.7,1.16-.35.06-.65.11-1.03.17Z"/>
      <path d="m13.21,13.32c.53-.06.84-.1,1.14-.13,0-.11.04-.21.01-.25-.31-.46-.63-.91-.93-1.35.18-.49.69-.11.98-.53.01-.4.02-.91.05-1.42,0-.15.08-.3.15-.44.02-.05.14-.07.21-.06.07,0,.17.05.19.1.05.15.09.3.1.46.01.47,0,.95,0,1.49.38.08.7.14,1.09.22-.19.66-.79,1.04-1.02,1.71.26.2.6.06.87.17.23.09.25.27.17.48-.57.14-2.22.24-2.69.11-.11-.03-.17-.27-.33-.56Z"/>
      <path d="m14.25,8.37c-.17-.93-.13-1.67-.06-2.47.53,0,1-.25,1.53-.02.18.08.44-.07.67-.1.51-.05.8.15.82.63.03.59.09,1.18-.09,1.93-.15-.24-.27-.35-.28-.48-.04-.44-.03-.88-.08-1.31-.01-.11-.18-.26-.3-.3-.21-.06-.42.06-.45.28-.06.39-.07.79-.1,1.19-.02.19,0,.41-.35.48-.02-.35-.04-.7-.06-1.04-.01-.2,0-.41-.05-.59-.04-.13-.21-.32-.3-.31-.17.02-.42.13-.47.26-.1.25-.07.54-.11.82-.03.29.09.62-.33,1.04Z"/>
      <path d="m13.71,6.58c-.2-.09-.3-.13-.39-.18-.63-.32-1.01-.15-1.06.51-.02.19.02.4.07.58.14.46.49.55.92.25.12-.08.22-.19.43-.37.09.53-.11.78-.45.93-.35.16-.7.11-1-.16-.55-.49-.55-1.65,0-2.16.26-.25.57-.27.89-.21.34.06.57.26.6.81Z"/>
      <path d="m5.85,2.11v.92c-.38-.29-.34-.6,0-.92Z"/>
      <path d="m3.98,5.45c-.2-.07-.39-.14-.76-.27.45-.18.68-.16.76.27Z"/>
      <path d="m6.72,5.47c.49-.28,1-.48,1.65-.39-.5.51-1.08.37-1.64.36,0,0-.01.02-.01.02Z"/>
      <path d="m7.55,10.57c.07.06.15.12.23.18-.04.03-.1.11-.11.1-.08-.06-.16-.13-.23-.19.03-.02.06-.04.11-.08Z"/>
      <path d="m3.5,7.73c.17-.06.33-.13.51-.18.04,0,.14.08.15.12,0,.06-.06.16-.11.17-.17.02-.35,0-.52,0,0-.04-.02-.08-.03-.12Z"/>
      <path d="m7.41,7.97c.11,0,.21-.03.32-.02.06,0,.11.07.16.11-.07.03-.13.08-.2.08-.1,0-.21-.03-.31-.05l.02-.11Z"/>
      <path d="m4.03,10.35c.19-.03.35.07.24.23-.18.29-.47.46-.95.38.3-.26.52-.45.74-.64,0,0-.03.03-.03.03Z"/>
    </g>
  </g>
</svg>