<?xml version="1.0" encoding="UTF-8"?>
<svg id="Layer_2" data-name="Layer 2" xmlns="http://www.w3.org/2000/svg" viewBox="0 0 14.17 14.71">
  <g id="Layer_1-2" data-name="Layer 1">
    <path d="m1.74,5.49c-.1-.23-.21-.44-.28-.66-.4-1.15.03-2.39,1.05-3.03.53-.33,1.1-.47,1.71-.21.21.09.42.18.7.29C5.28.79,5.86-.07,7.1,0c1.19.07,1.82.87,2.17,2.03.25-.08.46-.15.67-.22,1.06-.38,1.96-.02,2.77.66.62.52.92,1.46.35,2.26-.07.1-.13.2-.22.36.16.15.32.31.5.45,1.21.94,1.1,3.09-.31,3.75-.14.06-.26.17-.38.24.61,1.5.55,2.28-.22,3.14-.69.76-1.27.87-2.73.52-1.39,1.98-3.22,2.04-4.68.11-.32.12-.64.28-.97.36-.8.2-1.51,0-2.1-.56-.62-.58-.8-1.4-.48-2.19.1-.26.25-.49.4-.8-.26-.13-.51-.24-.74-.38-.99-.61-1.39-1.87-.94-2.94.16-.38.4-.69.76-.9.24-.14.49-.25.79-.4Zm7.25,6.01c.44.44.67.71.94.94.65.55,1.31.54,1.93-.04.17-.16.32-.36.43-.57.42-.81.22-1.57-.56-2.07-.2-.13-.44-.2-.64-.33-.08-.05-.15-.2-.13-.29.02-.08.15-.19.24-.2.43-.05.88,0,1.3-.11.8-.21,1.18-.91,1.06-1.77-.11-.79-.64-1.3-1.43-1.36-.2-.01-.4.04-.6.01-.13-.01-.24-.11-.48-.23.31-.21.5-.33.69-.46.23-.16.48-.29.68-.48.45-.43.48-.9.13-1.4-.73-1.03-2.53-1.23-3.22-.2-.11.17-.22.34-.37.47-.07.06-.22.02-.4.03,0-.22,0-.41,0-.6,0-.36.03-.73-.05-1.07-.16-.75-.82-1.2-1.59-1.17-.72.03-1.21.51-1.3,1.31-.04.35,0,.72,0,1.08,0,.14-.07.28-.14.51-.2-.15-.34-.22-.43-.32-.21-.24-.37-.53-.59-.75-.37-.38-.84-.48-1.32-.3-.74.28-1.13.88-1.25,1.63-.1.65.18,1.17.7,1.56.22.17.49.27.71.45.09.07.11.24.19.43-.3,0-.49,0-.69,0-.2,0-.4-.04-.6-.04-.81,0-1.36.38-1.54,1.06-.19.71.09,1.55.66,1.92.38.25.81.31,1.26.22.25-.05.54-.2.76.09.04.31-.22.4-.38.56-.26.25-.55.48-.75.76-.46.64-.39,1.32.13,1.85.53.55,1.37.7,1.97.31.26-.17.47-.43.69-.65.14-.14.23-.33.57-.23.03.26.05.57.11.86.13.69.67,1.11,1.47,1.17.82.06,1.61-.31,1.8-.9.07-.22.05-.47.05-.71,0-.23,0-.45,0-.97Z"/>
    <path d="m7.14,10.51c-1.69,0-3.02-1.33-3.01-3.03.01-1.65,1.3-2.96,2.94-2.99,1.67-.03,3.07,1.31,3.1,2.98.03,1.65-1.35,3.04-3.03,3.04Zm2.4-3.01c.03-1.3-.99-2.41-2.41-2.44-1.32-.03-2.43,1.11-2.43,2.44,0,1.33,1.11,2.44,2.43,2.45,1.33,0,2.41-1.1,2.41-2.44Z"/>
  </g>
</svg>