<?xml version="1.0" encoding="UTF-8"?>
<svg id="Layer_2" data-name="Layer 2" xmlns="http://www.w3.org/2000/svg" viewBox="0 0 21.43 9.08">
  <g id="Layer_1-2" data-name="Layer 1">
    <g>
      <path d="m7.11,8.45c-1.11-.09-1.97-.51-2.44-1.49-.46-.96-.22-1.87.42-2.69.38-.48.88-.81,1.44-1.05.37-.16.74-.29,1.12-.43.93-.36,1.59-.93,1.53-2.04,0-.07.07-.14.14-.28.12.04.25.09.38.11.11.01.23-.05.34-.04.14,0,.29.06.52.11-.18.39-.32.71-.46,1.03-.26.6-.2,1.17.19,1.7.31.42.64.82.94,1.24.52.75.77,1.57.59,2.49-.32,1.62-2.08,2.48-3.54,1.68-.3-.16-.56-.45-.75-.75-.39-.62-.56-1.32-.54-2.06.02-.43.06-.86.1-1.31-1.03.93-1.03,1.7.01,3.79Z"/>
      <path d="m21.42,8.14c-1.19.18-5.47.18-6.52,0-.19-.55-.08-1.15-.1-1.73-.02-.64,0-1.28,0-1.91,0-.59-.04-1.19.06-1.83.32-.04.59-.1.86-.11.36-.02.72,0,1.08-.02.2,0,.43-.05.41-.31,0-.11-.16-.25-.28-.32-.13-.08-.31-.07-.46-.13-.42-.18-.63-.52-.6-.93.04-.45.36-.8.87-.82.91-.04,1.83-.04,2.75,0,.49.02.83.4.87.83.04.38-.2.75-.61.93-.14.06-.32.05-.46.13-.12.07-.26.22-.26.32,0,.1.18.25.3.28.27.05.55.03.83.04.35.01.71.03,1.12.05.24.6.12,1.2.14,1.78.02.64,0,1.28,0,1.91,0,.59,0,1.19,0,1.84Zm-1.7-1.21c-.12.13-.21.31-.31.31-.27,0-.54-.08-.81-.09-.09,0-.23.1-.26.19-.03.09,0,.26.06.32.71.61,1.79.35,2.06-.49.19-.59.14-2.19-.09-2.97-.3-.03-.61-.06-.93-.09-.08,0-.16-.02-.24-.02-.58,0-.86.23-1.01.81-.03.12-.06.23-.07.35-.02.44.02.88.31,1.25.26.32.62.31.98.32.08,0,.15.04.31.1Zm-2.39-1.68c.16-.25.33-.48.45-.72.04-.07-.01-.25-.08-.3-.07-.05-.23-.05-.32-.01-.31.13-.44.53-.9.6-.04-.54-.06-1.01-.13-1.47-.02-.11-.2-.28-.3-.27-.12,0-.32.17-.32.27-.03,1.07-.02,2.14-.02,3.21,0,.04.02.08.05.11.08.07.17.18.27.19.09.01.25-.06.29-.14.13-.27.21-.56.35-.96.23.3.37.48.51.66.32.45.54.57.72.4.28-.27.05-.5-.08-.74-.16-.27-.32-.55-.48-.82Z"/>
      <path d="m4.98,3.74c-1.29,1.99-1.26,2.74.17,4.54-.53.27-.75.35-1.19.21-.29-.09-.59-.25-.81-.46-.51-.48-.74-1.13-.87-1.8-.07-.35-.09-.7-.15-1.18-.5.59-.53,1.18-.33,1.73.2.54.55,1.02.89,1.61-.82.03-1.49-.16-2.04-.67C-.04,7.08-.13,6.27.15,5.41c.21-.63.64-1.1,1.18-1.47.33-.22.68-.41,1.02-.62.74-.45,1.21-1.04,1.06-1.97-.01-.07.04-.15.08-.28.31-.03.64-.07,1.07-.11-.09.54-.18.99-.23,1.45-.06.53.36.86.65,1.33Z"/>
      <path d="m18.86,5.45c.06-.18.09-.33.15-.47.08-.2.47-.25.6-.09.24.29.26.76.03,1.09-.12.17-.51.18-.6,0-.08-.17-.13-.36-.18-.52Z"/>
    </g>
  </g>
</svg>