<?xml version="1.0" encoding="UTF-8"?>
<svg id="Layer_2" data-name="Layer 2" xmlns="http://www.w3.org/2000/svg" viewBox="0 0 18.93 11.69">
  <g id="Layer_1-2" data-name="Layer 1">
    <g>
      <path d="m2.41,7.52c-.58.82-.6,1.51-.38,2.14.22.61.62,1.16.97,1.79-.86.08-1.59-.14-2.22-.68C0,10.1-.21,8.95.21,7.91c.23-.57.61-1.03,1.1-1.39.32-.24.66-.45,1.01-.64,1.05-.59,1.79-1.34,1.42-2.74.44-.04.8-.08,1.17-.11.03,0,.06.04.17.12-.02.14-.02.33-.08.5-.36,1.02-.15,1.86.7,2.56.4.33.77.7,1.08,1.11.61.8.84,1.71.52,2.7-.41,1.29-1.95,2.03-3.19,1.49-.28-.12-.53-.35-.74-.59-.54-.62-.79-1.38-.89-2.18-.04-.31-.04-.63-.07-1.22Z"/>
      <path d="m18.02,7.01c-.31,1.29-.61,2.53-.92,3.76-.06.23-.15.45-.24.72-1.02.27-2.06.11-3.08.12-1.03.02-2.07.07-3.13-.05-.47-1.5-.79-2.98-1.14-4.53.21-.06.38-.15.56-.15,2.44-.01,4.88-.01,7.32,0,.19,0,.38.08.63.13Z"/>
      <path d="m18.87,4.81c.02.37.06.64.05.91,0,.19-.06.38-.08.49-.1.1-.12.14-.15.16-.03.02-.08.03-.11.03-3.02.01-6.05.03-9.07.04-.24,0-.47-.03-.71-.04-.38-.48-.23-.98-.17-1.55.21-.04.4-.11.58-.11,3.02,0,6.05,0,9.07,0,.16,0,.31.04.59.09Z"/>
      <path d="m5.3,2.47c-.36-.09-.54-.27-.34-.53.22-.27.51-.5.81-.7,2.36-1.62,5.46-1.65,7.88-.08.3.2.56.47.89.6.31.13.68.13,1.06.2-.06.15-.08.28-.16.35-.52.54-1.05,1.07-1.62,1.65-.83-.52-1.39-1.21-2.02-2,.48-.07.84-.12,1.38-.19-1.37-.99-2.75-1.17-4.19-1.02-1.43.14-2.65.82-3.68,1.72Z"/>
    </g>
  </g>
</svg>