<?xml version="1.0" encoding="UTF-8"?>
<svg id="Layer_2" data-name="Layer 2" xmlns="http://www.w3.org/2000/svg" viewBox="0 0 23.43 8.97">
  <g id="Layer_1-2" data-name="Layer 1">
    <g>
      <path d="m21.45,0c.63,1.34.34,2.66-.86,3.86v1.17c.48-.02.67-.21.74-.65.19-1.2.78-1.86,2.08-2.38.07,1.2-.32,2.22-1.38,2.71-1.36.63-1.64,1.6-1.38,2.92.06.31.11.63.11.95,0,.38-.24.46-.63.36-.03-.2-.09-.43-.09-.65,0-.48.04-.96.02-1.44-.03-.76-.31-1.36-1.05-1.74-.41-.21-.76-.58-1.08-.92-.61-.65-.85-1.42-.63-2.37.17.05.34.05.46.14.39.28.76.58,1.12.89.67.57,1.12,1.25.9,2.19-.01.05.08.12.18.26.06-.19.13-.32.13-.46,0-.68-.01-1.36-.05-2.03-.06-1.07.3-1.95,1.08-2.68.06-.05.13-.09.2-.12.03-.02.08-.01.12-.02Z"/>
      <path d="m14.01,4.45c.07-.45.11-.75.16-1.06.12,0,.22-.03.27,0,.24.14.47.3.7.45.23.15.45.3.76.5.23-.52.07-1.01.19-1.45.02-.09.16-.2.24-.2.09,0,.17.12.25.2.03.02.03.07.04.11.01.08.02.16.02.24,0,1,0,2,0,2.99,0,.15-.06.31-.12.45-.02.05-.13.09-.2.08-.07,0-.16-.06-.19-.12-.05-.1-.08-.22-.08-.34-.02-.35-.03-.71-.04-1.12-.74.12-1.12.81-1.84.97-.05-.36-.09-.67-.14-.96-.08-.05-.14-.13-.2-.13-1.43-.09-2.86-.03-4.33-.04-.09.41-.16.74-.25,1.17-.6-.37-1.12-.7-1.75-1.1-.05.59-.09,1.05-.15,1.51,0,.06-.17.13-.27.15-.04,0-.12-.08-.16-.14-.04-.07-.05-.15-.05-.23,0-1.12,0-2.23.01-3.35,0-.11.07-.22.14-.42.14.12.31.2.33.3.06.42.08.86.12,1.35.71-.08,1.08-.73,1.76-.91.09.35.17.67.27,1.07,1.49.09,2.95.04,4.5.03Z"/>
      <path d="m4.01,4.99c-.02.07-.02.17-.07.22-.61.54-.66,1.23-.55,1.98.07.47.11.95.14,1.43.01.26-.12.32-.67.3-.02-.3-.04-.61-.04-.93,0-.48.03-.96-.01-1.44-.05-.58-.29-1.08-.86-1.34-.56-.26-.99-.68-1.36-1.16C.11,3.43-.13,2.74.07,1.9c.63-.08.94.42,1.31.72.39.32.8.71,1.02,1.15.21.42.18.96.3,1.67.23-.77.19-1.32.17-1.87-.01-.4-.05-.8-.04-1.2.03-.98.49-1.75,1.25-2.35.04-.04.15,0,.22,0,.48,1.72.27,2.6-.97,3.89v1.09h.7s-.02-.02-.02-.02Z"/>
      <path d="m4.03,5.02c.02-.15.05-.31.05-.46-.02-.83.38-1.43,1-1.92.3-.24.63-.45.97-.7.31,1.5-.5,2.66-2.04,3.05,0,0,.02.02.02.02Z"/>
    </g>
  </g>
</svg>