<?xml version="1.0" encoding="UTF-8"?>
<svg id="Layer_2" data-name="Layer 2" xmlns="http://www.w3.org/2000/svg" viewBox="0 0 20.06 10.37">
  <g id="Layer_1-2" data-name="Layer 1">
    <g>
      <path d="m1.45,3.42c-.37-.06-.69-.07-.98-.17C.2,3.16.02,2.93,0,2.62c-.02-.3.21-.61.55-.69.27-.06.55-.07.9-.11-.11-.28-.24-.55-.31-.83-.11-.42.05-.78.36-.92.28-.12.61-.06.86.22.19.2.34.43.52.68.2-.27.37-.53.57-.75.24-.25.62-.28.88-.11.27.18.42.53.31.83-.1.29-.24.57-.37.86.37.04.69.05.99.13.3.07.45.31.47.62.01.31-.12.56-.41.66-.29.1-.61.13-.99.21.12.29.25.56.34.85.09.32-.07.62-.37.81-.28.18-.56.11-.77-.08-.23-.21-.4-.49-.62-.77-.21.26-.41.54-.66.77-.21.2-.48.25-.77.09-.28-.16-.4-.41-.35-.7.06-.31.19-.6.32-.98Zm1.4-1.49c-.36.02-.62.36-.58.75.03.31.35.56.67.53.33-.03.58-.3.59-.63,0-.37-.31-.68-.68-.66Z"/>
      <path d="m13.72,9.05h-.61c-.06-.09-.14-.15-.14-.21-.02-.52-.04-1.03-.05-1.55,0-.44-.02-.88,0-1.32.02-.74-.7-1.18-1.45-.71-.37.24-.53.59-.54,1.01-.02.52,0,1.04-.02,1.56-.01.39.06.8-.14,1.21h-.56c-.18-.86-.21-3.12-.06-4.41.07-.04.14-.09.21-.11.06-.01,1.36-.08,1.43-.1.44-.13.87-.13,1.28.1.21.11.4.24.6.36.27-.14.5-.32.76-.39.34-.09.71-.15,1.05-.1.69.09,1.06.49,1.1,1.2.04.92.03,1.83.02,2.75,0,.23-.07.46-.11.71h-.56c-.04-.22-.12-.44-.12-.67-.02-.8,0-1.6-.02-2.39-.02-.56-.31-.87-.76-.9-.52-.04-1.02.23-1.14.68-.09.34-.1.71-.11,1.06-.02.71-.03,1.43-.04,2.23Z"/>
      <path d="m3.07,10.37c-1.07-.3-1.67-.92-2.13-1.68-.36-.59-.43-1.02-.31-1.71.84.18,1.24.92,1.85,1.52.18-.42.11-.77.12-1.11.01-.36,0-.72,0-1.07.01-.33-.08-.72.36-.93.53.69.04,1.56.4,2.34.61-.46.94-1.24,1.77-1.34.19.38.09.72-.03,1.06-.23.65-.6,1.22-1.16,1.63-.42.31-.78.64-.88,1.29Z"/>
      <path d="m17.29,6.51c.05-.72.41-1.07.86-1.37.33-.22.68-.43.97-.69.32-.29.32-.72.06-.95-.31-.28-.75-.23-1.05.11-.03.03-.05.07-.06.1-.11.22-.2.46-.52.37-.22-.06-.23-.41-.02-.72.46-.68,1.47-.83,2.11-.31.43.35.56.94.23,1.39-.21.28-.51.5-.78.72-.28.22-.58.41-.87.62-.02.01,0,.07,0,.2.33.02.67.03,1.01.06.19.02.39.05.58.1.05.01.11.12.11.19,0,.06-.06.13-.1.2-.02.03-.07.06-.1.06-.79.05-1.57.13-2.42-.08Z"/>
      <path d="m9.67,2.58c-.16.46-.24.73-.34.99-.63,1.59-1.26,3.18-1.89,4.76-.1.26-.19.53-.35.75-.08.11-.31.12-.55.2,0-.22-.03-.34,0-.43.75-1.92,1.51-3.84,2.27-5.76.06-.14.13-.3.25-.39.1-.08.27-.06.6-.11Z"/>
    </g>
  </g>
</svg>