<?xml version="1.0" encoding="UTF-8"?>
<svg id="Layer_2" data-name="Layer 2" xmlns="http://www.w3.org/2000/svg" viewBox="0 0 21.7 11.61">
  <g id="Layer_1-2" data-name="Layer 1">
    <g>
      <path d="m9.3,10.39c.29-1.19.57-2.23.8-3.28.11-.5.61-.42.92-.67v-2.17c-1.19-.26-2.35,0-3.56-.17-.09-.22-.18-.46-.27-.69.12-.08.18-.15.25-.16.32-.02.64-.04.96-.04,3.56,0,7.12,0,10.68,0,.39,0,.8-.06,1.25.14-.52,2.33-1.14,4.64-1.74,6.97-1.03.22-2.03.08-3.02.11-1.04.02-2.08.01-3.12,0-.99,0-1.99.04-3.15-.04Z"/>
      <path d="m5.86,2.43c-.01-.5-.03-.98-.03-1.45,0-.27.05-.55.08-.87.3-.04.57-.11.84-.11,4.63,0,9.26,0,13.89,0,.31,0,.62.06.94.09.19.81.13,1.56.06,2.37-.25.06-.47.15-.69.15-1,.02-2,.01-2.99.01-3.55,0-7.1,0-10.66,0-.43,0-.88.08-1.44-.18Z"/>
      <path d="m.93,6.99c1.06-.17,7.41-.18,8.49-.04.04.07.12.14.11.2-.24,1.46-.67,2.86-1.02,4.25-.89.22-4.41.28-6.31.11-.47-.65-.48-1.48-.71-2.23-.22-.72-.36-1.46-.56-2.3Z"/>
      <path d="m0,6.09v-1.34c1.19-.21,2.34-.08,3.48-.1,1.16-.02,2.31-.01,3.47,0,1.15,0,2.3-.04,3.49.04.18.46.16.88.04,1.35-1.15.2-2.3.07-3.45.09-1.16.02-2.31.01-3.47,0-1.15,0-2.3.04-3.57-.04Z"/>
    </g>
  </g>
</svg>