<?xml version="1.0" encoding="UTF-8"?>
<svg id="Layer_2" data-name="Layer 2" xmlns="http://www.w3.org/2000/svg" viewBox="0 0 26.48 7.44">
  <g id="Layer_1-2" data-name="Layer 1">
    <g>
      <path d="m22.05,4.14c-.13-.24-.35-.29-.61-.3-.91-.02-1.58-.49-2.12-1.17-.41-.52-.85-1.03-1.14-1.76,1.9-.1,3.07.83,3.95,2.33.35-.32.31-.69.38-1.01.22-1,.81-1.71,1.71-2.18.09-.05.22-.03.4-.05-.07,1.21-.34,2.29-1.16,3.18l.04-.04c-.62.13-1.15.41-1.48.98l.04.02Z"/>
      <path d="m15.8,4.19c.03-.39.01-.75.08-1.09.12-.62.55-.94,1.19-.94.65,0,1.1.29,1.17.94.07.74.07,1.5,0,2.24-.06.64-.52.95-1.16.95-.62,0-1.07-.33-1.19-.95-.07-.39-.06-.79-.08-1.15Zm1.8.04c-.03-.33-.05-.73-.12-1.11-.02-.12-.22-.29-.33-.28-.17.01-.45.12-.48.24-.2.73-.18,1.48-.02,2.21.03.12.29.24.46.27.22.04.37-.12.4-.34.04-.31.06-.63.09-1Z"/>
      <path d="m15.3,4.44c-.03.24-.04.64-.14,1.02-.15.56-.57.83-1.15.83-.59,0-1.01-.27-1.15-.84-.2-.82-.2-1.65,0-2.47.14-.57.54-.83,1.15-.82.61,0,.97.26,1.15.83.04.11.07.23.08.35.02.32.03.63.05,1.1Zm-1.85-.22c.04.35.06.71.13,1.06.04.22.23.36.43.31.16-.04.42-.2.43-.32.04-.7.04-1.41,0-2.11,0-.12-.28-.32-.42-.32-.14,0-.38.19-.42.33-.09.34-.1.7-.14,1.05Z"/>
      <path d="m12.16,4.17c0,.36.04.72,0,1.07-.09.68-.55,1.05-1.22,1.05-.68,0-1.12-.35-1.17-1.07-.05-.71-.04-1.42.02-2.13.06-.59.46-.89,1.05-.93.65-.04,1.11.25,1.28.82.02.08.04.15.04.23,0,.32,0,.63,0,.95,0,0,0,0,0,0Zm-.67.07c-.03-.33-.03-.73-.12-1.11-.03-.13-.28-.26-.45-.29-.2-.04-.4.11-.41.33-.02.67-.02,1.34-.01,2,0,.21.13.37.36.41.24.04.51-.11.54-.34.05-.31.06-.62.1-1Z"/>
      <path d="m9.03,2.29c.05,1.25.07,2.44-.02,3.63,0,.1-.22.26-.33.26-.11,0-.27-.18-.29-.3-.05-.35-.04-.72-.04-1.08,0-.48,0-.96,0-1.41-.12-.05-.19-.09-.26-.1-.18-.03-.46.03-.54-.07-.2-.26.06-.42.24-.56.19-.15.38-.31.6-.38.16-.06.37.01.63.03Z"/>
      <path d="m23.46,3.18c.3-.1.6-.21.9-.3.8-.25,1.05-.23,2.12.21-.78.72-1.57,1.23-2.67,1.07-.27-.04-.55-.04-.82-.06l.02.04c.16-.33.32-.66.48-1l-.04.04Z"/>
      <path d="m6.54,5.51c.55,0,1,.43.99.96,0,.52-.51.99-1.01.96-.46-.03-.89-.46-.92-.93-.03-.54.39-.99.95-1Z"/>
      <path d="m2.37,5.02c-.52,0-.98-.47-.96-1,.01-.54.47-.95,1.02-.92.52.03.88.4.89.92.01.54-.43,1-.95,1Z"/>
      <path d="m3.78,7.44c-.52,0-.97-.46-.96-.99,0-.52.37-.9.89-.93.55-.03,1.02.38,1.04.91.02.52-.44,1-.96,1.01Z"/>
      <path d="m3.81.68c.55.02.97.48.92,1.02-.04.48-.47.89-.95.9-.53.01-.97-.44-.97-.98,0-.56.43-.96.99-.93Z"/>
      <path d="m6.15,4.07c-.02.5-.53.98-1.02.96-.52-.03-.93-.51-.9-1.05.03-.51.41-.86.94-.87.55,0,1,.44.98.96Z"/>
      <path d="m1.92,6.49c-.01.54-.49.99-1.01.94C.4,7.39-.05,6.88,0,6.38c.05-.48.48-.86.97-.86.57,0,.96.4.95.98Z"/>
      <path d="m22.99,4.1c-.28.32-.57.63-.9,1v2.33c-.21-.01-.39-.02-.63-.04.06-1.02.08-1.97.34-2.89.04-.14.16-.25.25-.37,0,0-.04-.02-.04-.02.14.24.33.27.58.16.13-.06.28-.09.42-.14l-.02-.04Z"/>
    </g>
  </g>
</svg>