<?xml version="1.0" encoding="UTF-8"?>
<svg id="Layer_2" data-name="Layer 2" xmlns="http://www.w3.org/2000/svg" viewBox="0 0 24.8 6.22">
  <g id="Layer_1-2" data-name="Layer 1">
    <g>
      <path d="m19.05,2.01c1.21-.16,3.82-.15,4.73,0,.08.8-.19,2.08-.86,4.08-.9.23-1.84.08-2.82.09-.44-.62-.46-1.35-.63-2.03-.17-.68-.46-1.35-.42-2.15Z"/>
      <path d="m24.69.25c.13.42.16.8-.02,1.16-.89.18-5.08.21-6.35.05-.31-.33-.19-.73-.14-1.16.13-.05.28-.14.42-.15,1.88-.01,3.76-.01,5.63,0,.15,0,.3.06.46.1Z"/>
      <path d="m9.15,3.24c.02-.38.02-.7.07-1.02.1-.57.53-.88,1.12-.86.53.02.97.31,1.02.83.06.71.05,1.44,0,2.15-.04.49-.53.81-1.03.82-.5,0-.98-.31-1.07-.79-.07-.39-.07-.79-.09-1.13Zm.7.03c.02.26.02.54.06.81.02.21.13.38.37.39.24.01.39-.14.39-.35.02-.59.02-1.18,0-1.77,0-.22-.19-.35-.41-.33-.22.02-.34.18-.36.4-.02.28-.03.55-.05.84Z"/>
      <path d="m14.24,3.24c-.02.33,0,.65-.05.96-.1.59-.6.99-1.17.96-.54-.02-.97-.37-1.03-.96-.07-.62-.07-1.27,0-1.89.08-.66.52-.98,1.15-.95.55.02.95.36,1.05.94.05.31.04.63.05.94Zm-.71,0c-.02-.28,0-.6-.07-.9-.02-.12-.21-.3-.31-.29-.16.02-.44.16-.45.26-.05.62-.05,1.25-.02,1.87,0,.21.21.33.43.3.22-.02.35-.17.37-.39.03-.27.03-.55.04-.85Z"/>
      <path d="m14.73,3.18c0-.28-.03-.56,0-.84.08-.65.51-1,1.14-.99.58.01.99.33,1.04.94.05.63.05,1.28,0,1.91-.05.59-.49.93-1.05.94-.55.01-1.01-.34-1.11-.9-.06-.35-.05-.72-.06-1.07.01,0,.02,0,.04,0Zm.8,1.18c.28.16.55.17.64-.1.23-.65.19-1.33.02-1.99-.03-.11-.24-.23-.36-.23-.12,0-.34.14-.35.24-.09.71-.14,1.42.05,2.09Z"/>
      <path d="m7.96,4.94v-2.48c-.22,0-.37.02-.51,0-.1-.02-.19-.11-.35-.2.1-.15.16-.3.27-.38.27-.21.56-.57.92-.42.46.18.31.67.32,1.04.01.71,0,1.43-.03,2.14-.01.27-.16.44-.63.3Z"/>
      <path d="m4.65,2.21c.48,0,.92.43.91.89,0,.47-.47.9-.94.88-.43-.02-.83-.41-.86-.84-.03-.46.4-.92.88-.93Z"/>
      <path d="m4.28.88c0,.48-.42.92-.89.92-.47,0-.9-.46-.88-.94C2.53.43,2.91.03,3.34,0c.46-.03.92.41.93.88Z"/>
      <path d="m.85,6.16c-.5,0-.87-.41-.85-.92.02-.46.37-.8.84-.81.52-.01.92.36.92.85,0,.49-.42.89-.91.88Z"/>
      <path d="m3.4,4.42c.51,0,.9.4.87.9-.02.45-.38.81-.83.83-.48.02-.92-.38-.94-.85-.02-.49.39-.88.9-.88Z"/>
      <path d="m6.81,5.32c-.02.5-.47.89-.96.84-.46-.05-.78-.42-.77-.9.01-.52.42-.87.96-.82.47.04.8.42.78.89Z"/>
      <path d="m3,3.13c-.02.49-.46.89-.93.85-.49-.04-.85-.48-.8-.98.04-.44.43-.8.87-.79.49,0,.89.42.86.92Z"/>
    </g>
  </g>
</svg>