<?xml version="1.0" encoding="UTF-8"?>
<svg id="Layer_2" data-name="Layer 2" xmlns="http://www.w3.org/2000/svg" viewBox="0 0 23.41 7.99">
  <g id="Layer_1-2" data-name="Layer 1">
    <g>
      <path d="m17.72,7.38c-.25,0-.56.08-.79-.02-.51-.21-.96-.5-1.55-.51-.17,0-.39-.28-.49-.47-.6-1.18-.7-2.44-.45-3.73.09-.5.54-.77,1.08-.72.19.02.37.12.61.2.11-.07.24-.15.37-.23.13-.09.24-.2.36-.29-.07-.17-.12-.31-.17-.44q.51-.25,1.02-1.16c.09.16.25.32.22.4-.17.44.62.76.11,1.25-.1.1.35.5.58.46.15-.03.29-.13.45-.16.56-.09.8.08,1.14.76-.03.07-.05.18-.1.21-.85.43-1.25,1.18-1.47,2.07-.2.81-.43,1.62-.9,2.4Zm-.7-4.11c.29-.01.6-.16.76-.5.04-.09-.04-.34-.12-.37-.41-.17-.81-.01-1.01.33-.11.19.07.53.37.54Zm-1.15.06c-.06-.11-.11-.26-.21-.37-.07-.07-.21-.12-.31-.1-.09.02-.23.13-.23.21,0,.22.02.45.08.67.02.08.19.16.28.15.1,0,.22-.09.28-.18.06-.09.06-.22.1-.38Z"/>
      <path d="m21.94,4.09c.1.17.18.3.26.43.25.44.15.86-.15,1.22-.18.21-.41.37-.63.55-.09.07-.21.11-.32.17-.99.5-1.97.99-3.05,1.53.03-.21.03-.36.08-.5.28-.87.58-1.74.86-2.6.03-.08.04-.15.07-.23.38-1.07.74-1.33,1.97-1.38.03-.22.03-.45.09-.68.05-.22.16-.43.25-.67.53.09.59.54.85.88.34.03.73.07,1.19.11-.13.88-.75,1.06-1.47,1.18Z"/>
      <path d="m10.11,3.62c.07-.47.12-.86.19-1.24,0-.05.12-.11.19-.11.06,0,.14.06.18.12.04.06.08.15.08.22,0,1.07,0,2.14,0,3.17-.29.19-.47.13-.51-.11-.07-.35-.08-.7-.12-1.08-.65.02-.93.66-1.57.76-.07-.27-.14-.55-.23-.91-1.32-.18-2.65-.04-4.01-.09-.1.39-.18.69-.28,1.04-.5-.3-.96-.58-1.43-.86-.37.43.02,1-.38,1.36-.02.02-.08,0-.12,0-.05-.05-.15-.09-.15-.14-.03-.43-.07-.87-.06-1.31.02-.71-.1-1.43.12-2.24.17.14.34.21.36.31.06.38.08.76.12,1.26.55-.34,1.01-.63,1.55-.96.08.36.14.62.2.88.83.18,2.5.21,4.11.07.05-.26.11-.55.18-.88.63.07.93.69,1.58.77Z"/>
      <path d="m11.88,2.2c-.4,0-.77-.39-.74-.77.03-.39.45-.75.82-.71.34.04.66.38.68.73.02.4-.34.76-.76.75Z"/>
      <path d="m12.63,4.16c-.04.41-.42.69-.85.64-.36-.05-.66-.38-.64-.73.02-.4.4-.75.79-.73.39.03.73.42.7.82Z"/>
      <path d="m1.45,6.71c0,.42-.33.73-.76.72-.39-.02-.67-.29-.69-.67-.03-.43.28-.77.7-.79.41-.02.75.31.75.73Z"/>
      <path d="m12.63,6.69c.02.4-.33.75-.75.74-.37,0-.7-.3-.74-.65-.04-.37.32-.78.71-.81.4-.03.77.31.79.72Z"/>
      <path d="m1.45,4.11c0,.42-.35.72-.78.69-.39-.03-.66-.31-.67-.69-.01-.42.31-.77.72-.77.4,0,.74.35.73.76Z"/>
      <path d="m.68.72c.38-.03.76.33.77.73.01.37-.25.69-.62.74C.41,2.24.03,1.95,0,1.54c-.03-.41.29-.79.68-.82Z"/>
    </g>
  </g>
</svg>