<?xml version="1.0" encoding="UTF-8"?>
<svg id="Layer_2" data-name="Layer 2" xmlns="http://www.w3.org/2000/svg" viewBox="0 0 17.85 16.07">
  <defs>
    <style>
      .cls-1 {
        fill: #fff;
      }
    </style>
  </defs>
  <g id="Layer_1-2" data-name="Layer 1">
    <g>
      <path d="m13.8,13.23c.2.62.14,1.15-.09,1.76-3,1.46-6.01,1.42-9.04-.02-.26-.56-.32-1.09-.14-1.69,1.02-.23,2.05-.08,3.07-.11,1.04-.03,2.07-.02,3.11,0,1.03.01,2.06-.07,3.09.06Z"/>
      <path d="m7.46,7.11c.28.2.57.4.99.69-.11-.47-.22-.77-.22-1.07,0-.21.11-.47.26-.62.32-.33,1.21-.31,1.55,0,.21.19.35.43.26.74-.05.15-.12.3-.15.45-.02.11,0,.22,0,.39.52-.2.89-.64,1.45-.54l-.05-.04c.56.68.89,1.38.24,2.18l.05-.04c-.39.02-.77.03-1.36.06.3.24.46.34.59.47.57.55.57.6.17,1.44-.05.03-.09.06-.14.1-.17.12-.35.25-.52.37l.05-.03c-.25-.04-.51-.08-.76-.12-.04-.03-.07-.06-.11-.09-.15-.33-.3-.67-.48-1.05-.09.16-.15.26-.2.36-.49.96-.53.98-1.61.66l.05.04c-.32-.44-.72-.86-.37-1.47.03-.03.07-.06.1-.09.2-.16.4-.32.79-.63h-1.29l.05.03c-.17-.17-.34-.34-.51-.52l.02.05c-.06-.7.27-1.24.73-1.72l-.05.03c.18,0,.35,0,.53,0,0,0-.04-.03-.04-.03Zm2.31,1.12c-.23-.03-.47-.1-.69-.08-.38.04-.71.63-.58.99.1.28.58.57.85.49.47-.13.77-.47.63-.83-.07-.18-.14-.36-.22-.58Z"/>
      <path d="m15.85,6.29c.46.45.17.96.08,1.53.35,0,.56-.25.82-.36.3-.12.54-.03.75.18.27.27.34.62.35.99,0,.34-.2.6-.56.67-.26.05-.53.06-.9.1.29.31.55.54.74.82.1.14.15.4.09.55-.19.47-.59.76-1.09.81-.16.02-.39-.11-.51-.24-.18-.19-.29-.45-.45-.7-.37.08-.28.45-.47.64-.28.29-.52.39-.84.26-.57-.23-.92-.62-.86-1.02.02-.15.09-.31.18-.42.18-.21.4-.38.61-.58-.15-.31-.41-.12-.61-.17-.23-.06-.47-.07-.71-.09l.04.05c-.09-.43-.16-.86,0-1.29.19-.53.6-.71,1.12-.47.21.09.4.21.6.31.05-.07.09-.11.08-.14-.27-1.46-.03-1.7,1.44-1.46.04,0,.07.03.11.04h-.04Zm-.72,3.45c.32,0,.71-.36.72-.66.02-.41-.32-.76-.72-.76-.43,0-.73.32-.71.75.01.32.39.67.71.67Z"/>
      <path d="m11.09,11.33s.09-.07.14-.1c.24,0,.48-.01.72-.03.54-.05,1.01.04,1.44.42.23.2.56.29.84.42.07.67,0,.78-.49.81-.24.01-.48,0-.72,0-2.56,0-5.11,0-7.67,0h-1.02c-.37-.34-.37-.67-.26-1.03.08-.05.13-.11.2-.13.28-.08.66.14.82-.28,0,0-.04.04-.04.04.82-.29,1.63-.4,2.45,0l-.05-.04q.73.64,1.83-.1c.17.05.32.1.47.14.04.03.08.06.11.09.31.41.41.43.76.12l-.05.03c.27.01.48-.07.52-.37Z"/>
      <path d="m13.85,1.88c-.22-.31-.4-.5-.73-.49-.6.02-1.2,0-1.79,0-.62-.01-1.08.22-1.32.82-.04.11-.14.19-.22.31h-1.22c-.1-.17-.19-.34-.28-.51-.24-.43-.61-.61-1.09-.62-.52,0-1.04.03-1.55-.01-.47-.04-.85.08-1.12.5-.54-.29-1.04-.51-1.49-.93.41-.47.95-.63,1.33-.89.41.13.72.28,1.05.31.51.05,1.04.03,1.55.01.75-.02,1.42.15,1.95.72.08.08.19.13.32.22.15-.14.29-.27.43-.4.4-.36.88-.54,1.42-.54.64,0,1.28-.03,1.91,0,.35.02.6-.12.85-.4.53.24,1.05.49,1.53.94-.47.43-.97.64-1.53.94Z"/>
      <path d="m5.09,11.43c-.74.11-1.1-.31-1.29-1.03-.19.31-.31.55-.47.75-.22.29-.53.34-.85.17-.32-.18-.59-.4-.7-.87.07-.11.15-.29.26-.45.09-.13.21-.23.32-.34-.06-.08-.09-.16-.15-.19-.19-.07-.39-.1-.57-.18-.33-.15-.46-.43-.38-.78.03-.12.07-.23.12-.34.23-.52.63-.68,1.05-.41.13.08.28.13.5.24,0-.5,0-.93,0-1.36,0,0-.04.02-.04.02.34-.07.67-.14.98-.2.27.34.51.63.74.93,0,0-.04-.05-.04-.05-.02.19-.04.38-.05.57.51,0,1-.23,1.34,0,.3.35.06.75.42.92l-.02-.05c-.17.58-.69.6-1.15.71-.03-.01-.06-.03-.09-.04-.01,0-.03.01-.05.02.05,0,.11,0,.16,0-.01.47.38.59.67.81l-.03-.05c-.05.53-.46.85-.73,1.25l.04-.04Zm-1.38-1.69c.27.02.63-.29.66-.56.04-.37-.23-.71-.6-.72-.39-.02-.65.25-.65.66,0,.28.31.6.59.62Z"/>
      <path d="m3.92,5.58c0-.24-.05-.49,0-.71.18-.76.53-.91,1.29-.62.07.03.14.04.25.07.02-.11.05-.22.05-.33-.04-.88.43-1.26,1.22-.91.34.15.62.37,1.02.26.04-.01.14.16.18.26.01.03-.08.14-.13.14-.15.01-.32-.04-.47,0-.29.06-.36.26-.22.6.17-.08.32-.18.49-.24.39-.14.59-.06.81.27.47.7.27,1.14-.58,1.33-.11.02-.22.05-.34.08.16.25.34.46.44.71.12.3-.02.46-.47.62,0,0,.04.03.04.03-.22-.28-.3-.28-.53,0l.05-.03c-.26-.06-.52-.12-.79-.18q-.63.75-1.54.42s-.08,0-.12,0c0,0,.04.05.04.05-.07-.25-.14-.5-.21-.76.22-.28.42-.54.69-.89-.44-.03-.77-.05-1.11-.07l-.06-.1Zm2.94-.16c-.03-.42-.31-.68-.69-.62-.29.04-.53.37-.51.69.02.29.36.53.69.49.29-.04.52-.29.5-.55Z"/>
      <path d="m14.37,4.04c0,.5.22,1.01-.12,1.48,0,0-.06.04-.06.04-.28.07-.57.14-.88.22.22.43.83.69.4,1.27-.41.08-.83.16-1.25.24-.16-.14-.32-.29-.49-.44-.18.12-.31.2-.44.29,0,0,.05.04.05.04-.08-.07-.16-.2-.24-.21-.23-.01-.46.03-.68.05-.2-.43-.16-.83.1-1.22-1.14-.33-1.3-.18-1.02-1.7l-.02.03c.49-.26.98-.14,1.47.13-.05-1.18.15-1.47.91-1.44.64.03.79.3.72,1.38.53-.14,1.06-.35,1.59-.1,0,0-.04-.05-.04-.05Zm-1.72,1.37c0-.42-.28-.7-.66-.68-.35.01-.65.38-.61.73.03.23.33.48.6.49.33.02.67-.26.66-.54Z"/>
      <path d="m3.92,5.58s.06.1.06.1c.09.14.18.28.32.48-.27.02-.42.02-.58.04-.15.02-.31.03-.46.08-.18.06-.36.15-.37.39,0,0,.04-.02.04-.02-.14-.07-.33-.11-.4-.22-.32-.54-.35-1.14-.12-1.96.36.09.73.18,1.06.27.16.31.3.57.44.84Z"/>
      <path d="m14.37,4.04s.04.05.04.05c-.26-.43-.79-.27-1.22-.53.09-.17.14-.38.27-.45.16-.09.38-.1.57-.1.68.01,1.31.2,1.91.62-.2.52-.59.82-1.11,1.08-.16-.23-.31-.45-.46-.66Z"/>
      <path d="m14.2,5.55s.06-.04.06-.04c.11-.03.25-.04.34-.1.48-.32.92-.17,1.32.13.48.36.86.82,1.09,1.39-.49.21-.55.22-.61-.11-.06-.34-.28-.44-.55-.53,0,0,.04,0,.04,0,0-.23-.13-.36-.35-.38-.31-.03-.62,0-.92-.05-.16-.03-.28-.21-.42-.32Z"/>
      <path d="m12.49,9.26c.14.17.27.35.41.53-.08.25-.14.52-.23.77-.12.32-.37.37-.74.27-.15-.35-.32-.74-.49-1.14.12-.14.25-.28.37-.42,0,0-.05.04-.05.04.25,0,.51,0,.76,0,0,0-.04-.05-.04-.05Z"/>
      <path d="m1.7,9.77c-.04.15-.05.24-.09.29-.07.09-.16.17-.26.27-.64-.38-1.04-.94-1.35-1.56.21-.36.49-.43.89-.38.02.59.28,1.09.8,1.37Z"/>
      <path d="m9.74,4.08c-.38.27-.35.68-.37,1.08-.01.2-.05.4-.4.4-.05-.37-.1-.74-.16-1.17.18-.15.35-.32.54-.45.19-.13.25.09.36.17,0,0,.02-.04.02-.04Z"/>
      <path d="m10.85,3.59c-.13.04-.26.11-.39.1-.08,0-.21-.13-.21-.19,0-.15.33-.28.48-.2.05.03.06.13.11.29Z"/>
      <path d="m2.59,7.13c-.13.09-.22.2-.3.2-.08,0-.16-.13-.23-.19.08-.07.15-.19.24-.2.08,0,.17.1.3.2Z"/>
      <path d="m7.23,9.9s-.07.06-.1.09c-.33.08-.34.38-.44.62-.04.11-.23.23-.35.22-.11,0-.23-.15-.32-.26-.09-.11-.16-.24-.23-.36l.03.05c-.09-.45.12-.72.53-.87.14-.05.29-.07.44-.1l-.05-.03c.17.21.33.42.5.63Z"/>
      <path class="cls-1" d="m5.14,9.46c-.05,0-.11,0-.16,0,.02,0,.04-.02.05-.02.03,0,.06.03.09.04,0,0,.02-.03.02-.03Z"/>
    </g>
  </g>
</svg>