<?xml version="1.0" encoding="UTF-8"?>
<svg id="Layer_2" data-name="Layer 2" xmlns="http://www.w3.org/2000/svg" viewBox="0 0 18.73 8.91">
  <g id="Layer_1-2" data-name="Layer 1">
    <g>
      <path d="m12.11,4.62c.23.24.18.42.02.57-.54.48-1.09.93-1.63,1.41-.18.16-.34.33-.48.53-.05.07-.02.26.05.32.1.09.31.21.4.17.25-.11.47-.3.68-.47.53-.43,1.04-.88,1.57-1.3.1-.07.28-.03.43-.04-.02.14.02.33-.06.41-.4.39-.84.74-1.26,1.11-.18.16-.37.32-.49.52-.06.09.01.3.08.42.03.05.25.07.31.02.51-.39,1-.79,1.49-1.2.31-.25.61-.52.93-.75.09-.07.27-.01.48-.01-.11.58-.58.73-.86,1.04-.23.26-.7.38-.52,1,.26-.18.46-.3.63-.45,1.01-.85,2-1.72,3.03-2.55.75-.61,1.29-1.3,1.26-2.33,0-.11.07-.22.11-.32.28-.12.39.03.42.25.11.67-.08,1.27-.45,1.82-.15.23-.34.45-.55.63-1.21,1.04-2.43,2.07-3.65,3.11-.4.34-.82.49-1.3.15-.18-.13-.36-.11-.55.01-.5.32-.98.33-1.39-.16-.2-.24-.47-.28-.74-.35-.39-.1-.66-.37-.65-.76.02-.47-.1-.85-.39-1.21-.09-.11-.09-.31-.08-.46,0-.09.11-.22.2-.25.08-.02.22.04.3.11.05.04.02.16.06.22.21.4.4.46.73.2.44-.34.86-.72,1.29-1.07.17-.14.38-.23.56-.33Z"/>
      <path d="m9.85,2.8c-.09-.41-.46-.77-.17-1.28,1.33-.35,2.68-.63,4.04-.1.3-.23.55-.42.8-.62.25-.2.49-.41.74-.61.15-.12.3-.28.52-.13.15.1.08.32-.2.58-.06.05-.12.11-.18.16-.09.08-.18.16-.27.23-1.23,1-.95,1.05-2.55.67-.8-.19-1.54.12-2.47.34.26.18.37.32.49.33.36.03.72,0,1.07.01.47.03.68.46.43.86-.33.52-.84.83-1.31,1.2-.3-.21-.2-.43-.05-.61.19-.24.43-.44.65-.66-.24-.36-.54-.08-.78-.16-.26-.08-.53-.17-.79-.26l.03.04Z"/>
      <path d="m5.49,6.8c.02.6-.5,1.13-1.12,1.14-.63,0-1.15-.47-1.16-1.09-.01-.61.49-1.13,1.12-1.14.62-.01,1.15.48,1.17,1.09Z"/>
      <path d="m6,2.86c.62.01,1.1.53,1.09,1.16-.01.64-.5,1.11-1.14,1.1-.62-.01-1.11-.53-1.09-1.16.02-.62.53-1.11,1.15-1.1Z"/>
      <path d="m9.81,2.76c.15.27.34.53.46.81.25.58-.04,1.23-.62,1.45-.6.23-1.25-.05-1.46-.62-.23-.64.1-1.35.74-1.51.3-.07.62-.06.92-.09,0,0-.03-.04-.03-.04Z"/>
      <path d="m2.77,5.1c-.63.02-1.15-.45-1.17-1.07-.02-.61.47-1.15,1.08-1.17.61-.02,1.15.47,1.18,1.08.03.61-.47,1.15-1.08,1.17Z"/>
      <path d="m8.71,6.87c-.02.65-.53,1.1-1.19,1.07-.6-.04-1.03-.49-1.03-1.1,0-.66.47-1.14,1.13-1.13.65,0,1.11.5,1.09,1.16Z"/>
      <path d="m2.22,6.82c0,.65-.48,1.13-1.14,1.12C.47,7.93.03,7.5,0,6.89c-.03-.67.42-1.17,1.07-1.18.66-.01,1.14.45,1.15,1.11Z"/>
    </g>
  </g>
</svg>