<?xml version="1.0" encoding="UTF-8"?>
<svg id="Layer_2" data-name="Layer 2" xmlns="http://www.w3.org/2000/svg" viewBox="0 0 24.68 6.79">
  <g id="Layer_1-2" data-name="Layer 1">
    <g>
      <path d="m21.22,2.01c-.02-.11,0-.28-.06-.31-.2-.12-.45-.16-.65-.28-.25-.15-.38-.4-.34-.71.05-.3.24-.51.51-.61.18-.07.39-.08.58-.08.6,0,1.2-.02,1.79.03.56.05.87.56.66,1.03-.07.17-.24.31-.39.42-.12.09-.3.11-.44.18-.06.03-.13.14-.11.19.04.1.12.23.19.24.27.04.55.03.83.05.23.01.47.03.69.05.23.84.26,3.05.08,4.39-.79.23-3.49.28-5.13.09-.29-.7-.12-1.46-.15-2.2-.02-.71,0-1.43.01-2.13.63-.42,1.32-.04,1.92-.33Zm-.14,3.58c-.05.37-.04.44.08.49.5.23,1.01.23,1.5.02.31-.13.54-.38.55-.72.04-.86.14-1.73-.06-2.57-.44-.06-.83-.12-1.21-.16-.65-.05-1.08.29-1.17.93-.03.23-.03.48,0,.71.07.49.36.81.84.89.26.04.54,0,.87,0-.32.93-.98.21-1.41.4Z"/>
      <path d="m14.64,4.06c-.02.32-.01.64-.06.95-.09.55-.54.91-1.09.9-.55,0-1.01-.37-1.05-.94-.05-.63-.05-1.27,0-1.9.04-.59.46-.93,1.03-.94.63-.02,1.05.33,1.12.98.04.31,0,.63,0,.95.01,0,.03,0,.04,0Zm-.65.05c-.04-.37-.05-.73-.12-1.07-.02-.11-.21-.25-.34-.26-.12,0-.36.13-.36.21-.03.66-.04,1.32-.01,1.98,0,.09.21.24.33.25.12,0,.33-.11.36-.21.08-.3.1-.61.14-.91Z"/>
      <path d="m17.45,3.97c-.02.37-.01.69-.07,1-.11.56-.55.92-1.08.93-.54.01-1.02-.32-1.08-.91-.07-.66-.07-1.35,0-2.01.06-.56.45-.83.98-.86.58-.03,1.01.26,1.14.83.08.34.07.71.1,1.02Zm-.69.15c-.02-.39,0-.72-.08-1.02-.04-.14-.26-.28-.42-.32-.1-.02-.34.12-.36.23-.14.66-.18,1.34.02,2,.03.11.24.22.37.21.13,0,.33-.13.36-.23.08-.3.08-.63.11-.87Z"/>
      <path d="m11.93,4c-.05.36-.07.77-.16,1.15-.12.46-.5.73-.96.76-.5.03-.96-.24-1.1-.74-.21-.78-.22-1.57.01-2.35.14-.47.5-.68,1-.69.55,0,.92.25,1.06.78.09.34.1.7.15,1.09Zm-1.68.04c.03.3.03.62.1.93.03.11.21.24.34.27.22.05.43-.09.44-.29.03-.63.03-1.27,0-1.9,0-.1-.24-.27-.34-.26-.17.02-.41.15-.44.29-.09.3-.07.63-.09.97Z"/>
      <path d="m8.34,3.25c-.25-.05-.46-.1-.75-.16.17-.59.6-.76,1.05-.89.08-.02.24.07.29.16.07.13.11.3.11.45.01.8,0,1.6,0,2.39,0,.12,0,.25-.04.35-.05.09-.19.23-.25.21-.13-.04-.32-.16-.33-.26-.04-.47-.03-.95-.05-1.43,0-.27-.02-.55-.04-.82Z"/>
      <path d="m4.28,1.54c-.02.51-.44.88-.95.83-.46-.04-.78-.41-.77-.88.01-.51.42-.87.94-.82.47.04.79.4.77.88Z"/>
      <path d="m.95,6.74C.44,6.77,0,6.37,0,5.88c0-.43.39-.83.83-.86.49-.04.94.38.95.86,0,.43-.38.83-.83.85Z"/>
      <path d="m6,5.02c.44.03.83.43.84.86,0,.48-.44.89-.95.86-.44-.02-.84-.43-.84-.85,0-.48.46-.9.95-.87Z"/>
      <path d="m5.53,3.81c-.06.46-.43.77-.91.74-.51-.03-.88-.48-.81-.97.07-.49.55-.82,1.04-.73.43.08.73.5.68.96Z"/>
      <path d="m3.04,3.7c0,.49-.43.87-.95.85-.46-.03-.81-.4-.81-.86,0-.46.36-.83.82-.85.5-.02.93.38.93.86Z"/>
      <path d="m3.38,6.74c-.47-.02-.81-.36-.82-.83,0-.51.4-.91.9-.88.46.02.81.39.82.85.01.52-.37.89-.9.87Z"/>
      <path d="m22.04,3.28c.36.03.54.32.49.79-.04.33-.24.52-.54.5-.33-.02-.51-.27-.5-.68.01-.4.23-.65.55-.62Z"/>
    </g>
  </g>
</svg>