<?xml version="1.0" encoding="UTF-8"?>
<svg id="Layer_2" data-name="Layer 2" xmlns="http://www.w3.org/2000/svg" viewBox="0 0 15.27 18.42">
  <g id="Layer_1-2" data-name="Layer 1">
    <g>
      <path d="m12.39,16c.03.2.07.36.08.51.04.5-.18.81-.65,1.01-2.88,1.26-5.71,1.19-8.5-.16q-.17-.67-.07-1.37c.17-.03.35-.09.54-.11,1.6-.1,7.65-.02,8.59.12Z"/>
      <path d="m10.36,8.57c.24.56.25,1.13.01,1.68.28.2.38-.04.54-.1.15-.06.29-.14.44-.18.33-.09.65.01.83.3.12.2.23.42.29.65.14.54-.11.95-.66,1.05-.27.05-.55.05-.84.07-.08.38.29.41.46.58.48.51.51.74.11,1.34-.08.13-.15.26-.23.4,0,0,.05-.03.05-.03q-1.26.16-1.74-1.01s-.09-.05-.14-.08c-.15.3-.27.59-.43.86-.18.29-.51.41-.83.29-.22-.08-.44-.19-.62-.34-.49-.4-.51-.87-.09-1.34.19-.22.57-.29.59-.67-.3-.02-.58-.02-.85-.06-.53-.09-.76-.39-.69-.92.03-.23.11-.47.22-.67.22-.42.57-.55,1-.38.29.11.56.28.89.45-.07-.37-.15-.67-.17-.98-.05-.54.2-.84.74-.88.39-.03.79,0,1.19.02l-.04-.02Zm-.75,2.31c-.51-.04-.82.21-.89.71-.05.38.4.85.8.84.29,0,.73-.36.78-.64.08-.4-.29-.89-.69-.92Z"/>
      <path d="m2.07,7.62c-.03-.39-.09-.78.06-1.17.29-.75.64-.9,1.36-.55.16.08.32.17.55.29-.05-.44-.13-.78-.12-1.12,0-.17.13-.41.28-.48.44-.24.92-.25,1.36.01.14.08.26.32.26.49,0,.35-.08.69-.13,1.09.27-.12.51-.22.74-.33.14.21.26.39.38.58,0,0-.04-.04-.04-.04,0,.27.21.39.39.56.23.22.14.58-.15.65-.26.07-.53.08-.87.13.14.15.24.26.35.36.11.11.25.2.35.32.3.35.28.73-.04,1.06-.05.06-.11.11-.17.16-.63.51-1.02.46-1.46-.22-.1-.15-.06-.41-.41-.4-.19.64-.57,1.1-1.35.99l.05.03c-.15-.17-.31-.33-.46-.5-.4-.45-.39-.78,0-1.23.17-.19.51-.24.49-.61-.47-.03-.93-.06-1.4-.09v.02Zm2.77.44c.31.01.71-.32.74-.63.05-.4-.25-.78-.65-.81-.45-.03-.75.21-.8.66-.04.36.32.77.7.78Z"/>
      <path d="m10.92,7.2s.04.07.05.1c.26.84.23.89-.61,1.26,0,0,.04.02.04.02-.1-.1-.18-.23-.29-.29-.28-.16-.58-.28-.88-.42-.41.49-.87.89-1.58.6l.03.03c-.09-.26-.29-.54-.24-.76.07-.31.33-.57.5-.85-.42-.18-.8-.34-1.19-.51,0,0,.04.04.04.04.09-.44.18-.89.27-1.33.03-.03.06-.06.09-.09.5-.14.88.23,1.36.4-.03-.28-.06-.48-.07-.67,0-.56.22-.78.79-.79.68,0,.93.26.86.94-.02.14-.07.29-.18.67.28-.25.38-.34.48-.43,0,0,0,0,0,0,.26.01.54-.24.78-.02.17.15.33.34.41.54.23.62.03.93-.63,1.08-.08.02-.16,0-.23.02-.07.02-.13.06-.29.13.2.12.34.21.49.31h0Zm-1.68-1.34c-.33.01-.57.26-.57.61,0,.28.32.61.59.62.32,0,.66-.38.62-.7-.04-.34-.29-.54-.64-.53Z"/>
      <path d="m3.19,14.36q-.12-.79.47-1.5c-.35-.09-.67-.18-.98-.27-.03-.05-.06-.11-.1-.16-.04-.18-.08-.35-.11-.53l-.02.05c.09-.26.17-.51.26-.77,0,0-.03.04-.03.04.45.02.9.04,1.4.06,0-.14-.01-.33,0-.52.04-.46.31-.71.76-.72.5-.01.77.26.79.8,0,.15-.02.31-.02.46.34.04.58.1.74.46.12.28.43.49.71.79-.26.08-.4.12-.55.17-.14.04-.33-.03-.39.17q.52.68.41,1.46l.04-.04q-.99.36-1.8-.4c-.06.16-.12.29-.17.43,0,0,.04-.04.04-.04-.36.3-.74.4-1.16.12-.09-.06-.22-.08-.32-.11l.04.04Zm1.72-1.31c.32-.03.55-.34.51-.67-.05-.36-.28-.53-.67-.48-.27.04-.47.28-.47.58,0,.31.32.59.63.56Z"/>
      <path d="m11.32,14.35c.21-.1.42-.19.62-.29.53-.27.88-.1.91.46.01.27-.03.55-.05.87-.21.06-.39.15-.57.15-2.95,0-5.9,0-8.85,0-.19,0-.38-.06-.63-.11-.02-.38-.04-.73-.06-1.18.21.04.36.07.5.1,0,0-.04-.04-.04-.04.21.37.54.51.96.48.31-.02.49-.18.53-.49,0,0-.04.04-.04.04.15.06.29.12.44.19.78.4.8.4,1.53-.22,0,0-.04.04-.04.04.16-.09.33-.19.47-.27,1.7,1.13,1.63.76,2.53.14.21.16.41.37.66.47.47.2.91.14,1.18-.37,0,0-.05.03-.05.03Z"/>
      <path d="m2.58,12.43c.04.05.07.1.1.16-.05.28.51.39.22.7-.22.24-.53.13-.79.03-.97-.38-1.58-1.14-2.11-2.07.78-.5,1.6-.47,2.41-.6v-.8c-1.49-1-1.76-1.58-1.54-3.36.42-.05.74.01.89.51.06.22.21.42.31.63,0,0,.01-.02.01-.02.18.14.36.29.54.43-.32,1.35-.23,1.56.82,2,0,0-.05-.03-.05-.03.07.08.15.17.22.25.33.38.26.61-.22.71-.25.05-.56-.04-.72.26,0,0,.03-.04.03-.04-.27.19-.23.5-.26.77,0,0,.02-.05.02-.05-.27.24-.01.37.11.53Z"/>
      <path d="m10.93,7.2c.27-.02.53-.04.78-.06.12-.4.23-.78.33-1.12.45-.25.81-.19,1.17.13.03.28.06.59.1.89.1,0,.19.02.25,0,.3-.13.61-.24.88.03.3.31.37.69.22,1.1-.05.14-.14.28-.21.41,0,0,.04-.03.04-.03-.25.01-.49.02-1,.05.4.25.58.36.75.47l-.05-.05c.01.2.06.4.02.59-.09.39-.45.66-.86.7-.32.03-.51-.15-.65-.42-.05-.11-.13-.2-.19-.28h-1.47c-.21-.28-.16-.49.02-.68.43-.47.35-1,.14-1.53-.04-.09-.19-.13-.28-.2,0,0,0,0,0,0Zm1.51.43c-.3.01-.56.32-.55.64,0,.23.3.51.56.52.3.02.62-.3.6-.59-.02-.36-.26-.59-.61-.58Z"/>
      <path d="m12.88,10.66c.7-.04,1.14.26,1.5.7.05.45-.42.44-.59.73.03.09.04.21.09.3.19.33.52.59.54,1.11-.69.27-1.36.28-2.08.03-.15-.32-.29-.64-.46-1.01.27-.25.63-.47.81-.78.16-.29.13-.68.19-1.07Z"/>
      <path d="m7.39,3.26c-.35-.66.07-1.36-.58-1.8.21-.54.47-1.05.85-1.46.4.08.45.39.59.61.15.23.27.48.39.71-.02.34-.48.4-.42.8.05.3-.02.63-.03,1.01-.27.04-.52.08-.79.13Z"/>
      <path d="m10.41,5.14v-1.05c.24-.38.68-.33,1.01-.49.33.4.18.78.17,1.23-.44.03-.94-.2-1.18.32,0,0,0,0,0,0Z"/>
      <path d="m7.16,5.01s-.07.06-.09.09c-.21.11-.41.25-.62.33-.07.03-.27-.07-.28-.14-.02-.14-.01-.37.07-.42.19-.12.44-.19.67-.21.43-.05.85-.11,1.2-.52.04.22.06.33.08.47-.27.32-.85-.11-1.02.4Z"/>
      <path d="m12.93,4.74c.03.33.05.51.07.66-.12.06-.18.12-.25.13-.2.02-.4.04-.59.02-.1,0-.19-.1-.28-.16.08-.12.12-.29.23-.36.2-.11.44-.16.83-.3Z"/>
      <path d="m14.44,8.59c.3.04.62.03.83.41-.15.17-.32.36-.51.57-.22-.21-.4-.37-.58-.54,0,0,.05.05.05.05.08-.17.17-.34.25-.52l-.04.03Z"/>
      <path d="m3.9,4.19c-.15.36-.23.54-.33.79-.24-.2-.41-.37-.25-.64.05-.08.26-.07.59-.15Z"/>
      <path d="m9.28,3.4s.07.08.09.13c0,.02-.03.09-.04.08-.05-.01-.1-.04-.15-.06.03-.05.07-.11.1-.16Z"/>
      <path d="m7.66,8.48c.09.13.16.26.26.38.17.19.31.43.1.61-.13.11-.41.05-.64.07-.13-.46-.18-.83.31-1.01,0,0-.03-.04-.03-.04Z"/>
      <path d="m6.39,10.53c-.16.12-.27.2-.37.27-.04-.09-.14-.2-.12-.28.02-.08.13-.18.22-.21.05-.02.14.1.28.22Z"/>
    </g>
  </g>
</svg>